<svg width="96" height="92" viewBox="0 0 96 92" fill="none" xmlns="http://www.w3.org/2000/svg" xmlns:xlink="http://www.w3.org/1999/xlink">
<mask id="mask_0_96_605" style="mask-type:alpha" maskUnits="userSpaceOnUse" x="0" y="0" width="48" height="46">
<path d="M0,0L96,0L96,62C96,78.569 82.569,92 66,92L30,92C13.431,92 0,78.569 0,62Z" fill="#D9D9D9"/>
</mask>
<g mask="url(#mask_0_96_605)">
<path d="M23.4,65.55C26.8,63.058 30.6,61.094 34.8,59.656C39,58.219 43.4,57.5 48,57.5C52.6,57.5 57,58.219 61.2,59.656C65.4,61.094 69.2,63.058 72.6,65.55C74.933,62.93 76.75,59.96 78.05,56.637C79.35,53.315 80,49.769 80,46C80,37.503 76.883,30.267 70.65,24.294C64.417,18.32 56.867,15.333 48,15.333C39.133,15.333 31.583,18.32 25.35,24.294C19.117,30.267 16,37.503 16,46C16,49.769 16.65,53.315 17.95,56.637C19.25,59.96 21.067,62.93 23.4,65.55ZM48,49.833C44.067,49.833 40.75,48.54 38.05,45.952C35.35,43.365 34,40.186 34,36.417C34,32.647 35.35,29.469 38.05,26.881C40.75,24.294 44.067,23 48,23C51.933,23 55.25,24.294 57.95,26.881C60.65,29.469 62,32.647 62,36.417C62,40.186 60.65,43.365 57.95,45.952C55.25,48.54 51.933,49.833 48,49.833ZM48,84.333C42.467,84.333 37.267,83.327 32.4,81.315C27.533,79.302 23.3,76.571 19.7,73.121C16.1,69.671 13.25,65.614 11.15,60.95C9.05,56.286 8,51.303 8,46C8,40.697 9.05,35.714 11.15,31.05C13.25,26.386 16.1,22.329 19.7,18.879C23.3,15.429 27.533,12.698 32.4,10.685C37.267,8.673 42.467,7.667 48,7.667C53.533,7.667 58.733,8.673 63.6,10.685C68.467,12.698 72.7,15.429 76.3,18.879C79.9,22.329 82.75,26.386 84.85,31.05C86.95,35.714 88,40.697 88,46C88,51.303 86.95,56.286 84.85,60.95C82.75,65.614 79.9,69.671 76.3,73.121C72.7,76.571 68.467,79.302 63.6,81.315C58.733,83.327 53.533,84.333 48,84.333ZM48,76.667C51.533,76.667 54.867,76.171 58,75.181C61.133,74.191 64,72.769 66.6,70.917C64,69.064 61.133,67.642 58,66.652C54.867,65.662 51.533,65.167 48,65.167C44.467,65.167 41.133,65.662 38,66.652C34.867,67.642 32,69.064 29.4,70.917C32,72.769 34.867,74.191 38,75.181C41.133,76.171 44.467,76.667 48,76.667ZM48,42.167C49.733,42.167 51.167,41.624 52.3,40.537C53.433,39.451 54,38.078 54,36.417C54,34.755 53.433,33.382 52.3,32.296C51.167,31.21 49.733,30.667 48,30.667C46.267,30.667 44.833,31.21 43.7,32.296C42.567,33.382 42,34.755 42,36.417C42,38.078 42.567,39.451 43.7,40.537C44.833,41.624 46.267,42.167 48,42.167Z" fill="#1C1B1F"/>
</g>
</svg>
