<svg width="210" height="220" viewBox="0 0 210 220" fill="none" xmlns="http://www.w3.org/2000/svg" xmlns:xlink="http://www.w3.org/1999/xlink">
<mask id="mask_0_51_116" style="mask-type:alpha" maskUnits="userSpaceOnUse" x="0" y="0" width="105" height="110">
<rect  x="0" y="0" width="210" height="220" fill="#D9D9D9"/>
</mask>
<g mask="url(#mask_0_51_116)">
<path d="M43.75,163.625C51.625,155.528 60.776,149.149 71.203,144.49C81.63,139.83 92.896,137.5 105,137.5C117.104,137.5 128.37,139.83 138.797,144.49C149.224,149.149 158.375,155.528 166.25,163.625L166.25,45.833L43.75,45.833L43.75,163.625ZM105,119.167C113.458,119.167 120.677,116.035 126.656,109.771C132.635,103.507 135.625,95.944 135.625,87.083C135.625,78.222 132.635,70.66 126.656,64.396C120.677,58.132 113.458,55 105,55C96.542,55 89.323,58.132 83.344,64.396C77.365,70.66 74.375,78.222 74.375,87.083C74.375,95.944 77.365,103.507 83.344,109.771C89.323,116.035 96.542,119.167 105,119.167ZM43.75,192.5C38.938,192.5 34.818,190.705 31.391,187.115C27.964,183.524 26.25,179.208 26.25,174.167L26.25,45.833C26.25,40.792 27.964,36.476 31.391,32.885C34.818,29.295 38.938,27.5 43.75,27.5L166.25,27.5C171.062,27.5 175.182,29.295 178.609,32.885C182.036,36.476 183.75,40.792 183.75,45.833L183.75,174.167C183.75,179.208 182.036,183.524 178.609,187.115C175.182,190.705 171.062,192.5 166.25,192.5L43.75,192.5ZM61.25,174.167L148.75,174.167L148.75,171.875C142.625,166.528 135.844,162.517 128.406,159.844C120.969,157.17 113.167,155.833 105,155.833C96.833,155.833 89.031,157.17 81.594,159.844C74.156,162.517 67.375,166.528 61.25,171.875L61.25,174.167ZM105,100.833C101.354,100.833 98.255,99.497 95.703,96.823C93.151,94.149 91.875,90.903 91.875,87.083C91.875,83.264 93.151,80.017 95.703,77.344C98.255,74.67 101.354,73.333 105,73.333C108.646,73.333 111.745,74.67 114.297,77.344C116.849,80.017 118.125,83.264 118.125,87.083C118.125,90.903 116.849,94.149 114.297,96.823C111.745,99.497 108.646,100.833 105,100.833Z" fill="#1C1B1F"/>
</g>
</svg>
