<svg width="96" height="92" viewBox="0 0 96 92" fill="none" xmlns="http://www.w3.org/2000/svg" xmlns:xlink="http://www.w3.org/1999/xlink">
<mask id="mask_0_130_67" style="mask-type:alpha" maskUnits="userSpaceOnUse" x="0" y="0" width="48" height="46">
<path d="M0,0L96,0L96,62C96,78.569 82.569,92 66,92L30,92C13.431,92 0,78.569 0,62Z" fill="#D9D9D9"/>
</mask>
<g mask="url(#mask_0_130_67)">
<path d="M23.4,71.179C26.8,68.679 30.6,66.708 34.8,65.266C39,63.824 43.4,63.103 48,63.103C52.6,63.103 57,63.824 61.2,65.266C65.4,66.708 69.2,68.679 72.6,71.179C74.934,68.551 76.75,65.571 78.05,62.238C79.35,58.905 80,55.347 80,51.566C80,43.041 76.884,35.782 70.65,29.789C64.417,23.796 56.867,20.8 48,20.8C39.134,20.8 31.584,23.796 25.35,29.789C19.117,35.782 16,43.041 16,51.566C16,55.347 16.65,58.905 17.95,62.238C19.25,65.571 21.067,68.551 23.4,71.179ZM48,55.411C44.067,55.411 40.75,54.114 38.05,51.518C35.35,48.922 34,45.733 34,41.951C34,38.17 35.35,34.981 38.05,32.385C40.75,29.789 44.067,28.491 48,28.491C51.934,28.491 55.25,29.789 57.95,32.385C60.65,34.981 62,38.17 62,41.951C62,45.733 60.65,48.922 57.95,51.518C55.25,54.114 51.934,55.411 48,55.411ZM48,90.023C42.467,90.023 37.267,89.014 32.4,86.995C27.533,84.976 23.3,82.236 19.7,78.774C16.1,75.313 13.25,71.243 11.15,66.564C9.05,61.885 8,56.886 8,51.566C8,46.246 9.05,41.246 11.15,36.567C13.25,31.888 16.1,27.818 19.7,24.357C23.3,20.896 27.533,18.156 32.4,16.137C37.267,14.118 42.467,13.108 48,13.108C53.534,13.108 58.734,14.118 63.6,16.137C68.467,18.156 72.7,20.896 76.3,24.357C79.9,27.818 82.75,31.888 84.85,36.567C86.95,41.246 88,46.246 88,51.566C88,56.886 86.95,61.885 84.85,66.564C82.75,71.243 79.9,75.313 76.3,78.774C72.7,82.236 68.467,84.976 63.6,86.995C58.734,89.014 53.534,90.023 48,90.023ZM48,82.332C51.534,82.332 54.867,81.835 58,80.842C61.134,79.848 64,78.422 66.6,76.563C64,74.704 61.134,73.278 58,72.285C54.867,71.291 51.534,70.794 48,70.794C44.467,70.794 41.134,71.291 38,72.285C34.867,73.278 32,74.704 29.4,76.563C32,78.422 34.867,79.848 38,80.842C41.134,81.835 44.467,82.332 48,82.332ZM48,47.72C49.734,47.72 51.167,47.175 52.3,46.086C53.434,44.996 54,43.618 54,41.951C54,40.285 53.434,38.907 52.3,37.817C51.167,36.728 49.734,36.183 48,36.183C46.267,36.183 44.834,36.728 43.7,37.817C42.567,38.907 42,40.285 42,41.951C42,43.618 42.567,44.996 43.7,46.086C44.834,47.175 46.267,47.72 48,47.72Z" fill="#1C1B1F"/>
</g>
</svg>
