<svg width="122" height="108" viewBox="0 0 122 108" fill="none" xmlns="http://www.w3.org/2000/svg" xmlns:xlink="http://www.w3.org/1999/xlink">
<mask id="mask_0_138_179" style="mask-type:alpha" maskUnits="userSpaceOnUse" x="0" y="0" width="61" height="54">
<path d="M0,0L122,0L122,78C122,94.569 108.569,108 92,108L30,108C13.431,108 0,94.569 0,78Z" fill="#D9D9D9"/>
</mask>
<g mask="url(#mask_0_138_179)">
<path d="M29.738,76.95C34.059,74.025 38.888,71.719 44.225,70.031C49.563,68.344 55.154,67.5 61,67.5C66.846,67.5 72.438,68.344 77.775,70.031C83.113,71.719 87.942,74.025 92.263,76.95C95.228,73.875 97.537,70.387 99.189,66.487C100.841,62.587 101.667,58.425 101.667,54C101.667,44.025 97.706,35.531 89.785,28.519C81.863,21.506 72.268,18 61,18C49.732,18 40.137,21.506 32.216,28.519C24.294,35.531 20.334,44.025 20.334,54C20.334,58.425 21.16,62.587 22.812,66.487C24.464,70.387 26.773,73.875 29.738,76.95ZM61,58.5C56.002,58.5 51.787,56.981 48.356,53.944C44.924,50.906 43.209,47.175 43.209,42.75C43.209,38.325 44.924,34.594 48.356,31.556C51.787,28.519 56.002,27 61,27C65.999,27 70.214,28.519 73.645,31.556C77.076,34.594 78.792,38.325 78.792,42.75C78.792,47.175 77.076,50.906 73.645,53.944C70.214,56.981 65.999,58.5 61,58.5ZM61,99C53.968,99 47.36,97.819 41.175,95.456C34.991,93.094 29.611,89.887 25.036,85.837C20.461,81.787 16.839,77.025 14.17,71.55C11.501,66.075 10.167,60.225 10.167,54C10.167,47.775 11.501,41.925 14.17,36.45C16.839,30.975 20.461,26.212 25.036,22.162C29.611,18.112 34.991,14.906 41.175,12.544C47.36,10.181 53.968,9 61,9C68.032,9 74.641,10.181 80.825,12.544C87.01,14.906 92.39,18.112 96.965,22.162C101.54,26.212 105.162,30.975 107.831,36.45C110.499,41.925 111.834,47.775 111.834,54C111.834,60.225 110.499,66.075 107.831,71.55C105.162,77.025 101.54,81.787 96.965,85.837C92.39,89.887 87.01,93.094 80.825,95.456C74.641,97.819 68.032,99 61,99ZM61,90C65.491,90 69.727,89.419 73.709,88.256C77.691,87.094 81.334,85.425 84.638,83.25C81.334,81.075 77.691,79.406 73.709,78.244C69.727,77.081 65.491,76.5 61,76.5C56.51,76.5 52.274,77.081 48.292,78.244C44.31,79.406 40.667,81.075 37.363,83.25C40.667,85.425 44.31,87.094 48.292,88.256C52.274,89.419 56.51,90 61,90ZM61,49.5C63.203,49.5 65.025,48.862 66.465,47.587C67.905,46.312 68.625,44.7 68.625,42.75C68.625,40.8 67.905,39.187 66.465,37.912C65.025,36.637 63.203,36 61,36C58.798,36 56.976,36.637 55.536,37.912C54.095,39.187 53.375,40.8 53.375,42.75C53.375,44.7 54.095,46.312 55.536,47.587C56.976,48.862 58.798,49.5 61,49.5Z" fill="#1C1B1F"/>
</g>
</svg>
