<svg width="98" height="66" viewBox="0 0 98 66" fill="none" xmlns="http://www.w3.org/2000/svg" xmlns:xlink="http://www.w3.org/1999/xlink">
<path d="M71.443,15.115L70.326,16.773L71.443,15.115ZM69.363,13.924L69.948,12.012L69.363,13.924ZM28.637,13.924L28.053,12.012L28.637,13.924ZM17.505,53.828L16.091,55.243L17.505,53.828ZM80.495,53.828L81.909,55.243L80.495,53.828ZM78.136,19.622L79.253,17.963L78.136,19.622ZM81.198,22.25L82.963,21.31L81.198,22.25ZM19.865,19.622L18.747,17.963L19.865,19.622ZM16.802,22.25L18.568,23.189L16.802,22.25ZM79.667,26.257L79.667,47L83.667,47L83.667,26.257L79.667,26.257ZM73.667,53L24.333,53L24.333,57L73.667,57L73.667,53ZM18.333,47L18.333,26.257L14.333,26.257L14.333,47L18.333,47ZM20.982,21.281L27.675,16.773L25.44,13.456L18.747,17.963L20.982,21.281ZM31.026,15.75L66.974,15.75L66.974,11.75L31.026,11.75L31.026,15.75ZM70.326,16.773L77.018,21.281L79.253,17.963L72.56,13.456L70.326,16.773ZM66.974,15.75C68.304,15.75 68.56,15.77 68.779,15.837L69.948,12.012C69.025,11.73 68.069,11.75 66.974,11.75L66.974,15.75ZM72.56,13.456C71.652,12.844 70.87,12.293 69.948,12.012L68.779,15.837C68.999,15.904 69.223,16.03 70.326,16.773L72.56,13.456ZM27.675,16.773C28.778,16.03 29.001,15.904 29.221,15.837L28.053,12.012C27.13,12.293 26.348,12.844 25.44,13.456L27.675,16.773ZM31.026,11.75C29.932,11.75 28.975,11.73 28.053,12.012L29.221,15.837C29.441,15.77 29.696,15.75 31.026,15.75L31.026,11.75ZM24.333,53C22.391,53 21.136,52.996 20.211,52.871C19.343,52.755 19.072,52.566 18.919,52.414L16.091,55.243C17.11,56.262 18.367,56.659 19.678,56.836C20.931,57.004 22.504,57 24.333,57L24.333,53ZM14.333,47C14.333,48.829 14.329,50.402 14.498,51.656C14.674,52.967 15.072,54.223 16.091,55.243L18.919,52.414C18.767,52.262 18.579,51.99 18.462,51.123C18.338,50.198 18.333,48.942 18.333,47L14.333,47ZM79.667,47C79.667,48.942 79.662,50.198 79.538,51.123C79.421,51.99 79.233,52.262 79.081,52.414L81.909,55.243C82.929,54.223 83.326,52.967 83.502,51.656C83.671,50.402 83.667,48.829 83.667,47L79.667,47ZM73.667,57C75.496,57 77.069,57.004 78.322,56.836C79.633,56.659 80.89,56.262 81.909,55.243L79.081,52.414C78.929,52.566 78.657,52.755 77.789,52.871C76.864,52.996 75.609,53 73.667,53L73.667,57ZM83.667,26.257C83.667,25.251 83.669,24.362 83.6,23.617C83.527,22.831 83.365,22.065 82.963,21.31L79.432,23.189C79.499,23.315 79.572,23.51 79.617,23.987C79.665,24.505 79.667,25.179 79.667,26.257L83.667,26.257ZM77.018,21.281C77.913,21.883 78.471,22.261 78.873,22.59C79.244,22.893 79.365,23.063 79.432,23.189L82.963,21.31C82.561,20.555 82.016,19.993 81.405,19.493C80.826,19.02 80.087,18.525 79.253,17.963L77.018,21.281ZM18.333,26.257C18.333,25.179 18.335,24.505 18.384,23.987C18.428,23.51 18.501,23.315 18.568,23.189L15.037,21.31C14.635,22.065 14.474,22.831 14.401,23.617C14.332,24.362 14.333,25.251 14.333,26.257L18.333,26.257ZM18.747,17.963C17.913,18.525 17.174,19.02 16.595,19.493C15.984,19.993 15.439,20.555 15.037,21.31L18.568,23.189C18.635,23.063 18.756,22.893 19.127,22.59C19.529,22.261 20.087,21.883 20.982,21.281L18.747,17.963Z" fill="#33363F"/>
<line x1="16.333" y1="25.5" x2="81.667" y2="25.5" stroke="#33363F" stroke-width="2" stroke-miterlimit="3.999327" stroke-linecap="round"/>
</svg>
