<svg width="210" height="274" viewBox="0 0 210 274" fill="none" xmlns="http://www.w3.org/2000/svg" xmlns:xlink="http://www.w3.org/1999/xlink">
<mask id="mask_0_133_139" style="mask-type:alpha" maskUnits="userSpaceOnUse" x="24" y="0" width="40" height="35">
<rect  x="24" y="0" width="80" height="70" fill="#D9D9D9"/>
</mask>
<mask id="mask_0_133_196" style="mask-type:alpha" maskUnits="userSpaceOnUse" x="0" y="54" width="105" height="110">
<rect  x="0" y="54" width="210" height="220" fill="#D9D9D9"/>
</mask>
<g mask="url(#mask_0_133_139)">
<path d="M50.083,37.917L68.75,54.25L64,58.333L37.333,35L64,11.667L68.75,15.75L50.083,32.083L90.667,32.083L90.667,37.917L50.083,37.917Z" fill="#1C1B1F"/>
</g>
<g mask="url(#mask_0_133_196)">
<path d="M43.75,217.625C51.625,209.528 60.776,203.149 71.203,198.489C81.63,193.83 92.896,191.5 105,191.5C117.104,191.5 128.37,193.83 138.797,198.489C149.224,203.149 158.375,209.528 166.25,217.625L166.25,99.833L43.75,99.833L43.75,217.625ZM105,173.166C113.458,173.166 120.677,170.035 126.656,163.771C132.635,157.507 135.625,149.944 135.625,141.083C135.625,132.222 132.635,124.66 126.656,118.396C120.677,112.132 113.458,109 105,109C96.542,109 89.323,112.132 83.344,118.396C77.365,124.66 74.375,132.222 74.375,141.083C74.375,149.944 77.365,157.507 83.344,163.771C89.323,170.035 96.542,173.166 105,173.166ZM43.75,246.5C38.938,246.5 34.818,244.705 31.391,241.114C27.964,237.524 26.25,233.208 26.25,228.166L26.25,99.833C26.25,94.792 27.964,90.476 31.391,86.885C34.818,83.295 38.938,81.5 43.75,81.5L166.25,81.5C171.062,81.5 175.182,83.295 178.609,86.885C182.036,90.476 183.75,94.792 183.75,99.833L183.75,228.166C183.75,233.208 182.036,237.524 178.609,241.114C175.182,244.705 171.062,246.5 166.25,246.5L43.75,246.5ZM61.25,228.166L148.75,228.166L148.75,225.875C142.625,220.528 135.844,216.517 128.406,213.844C120.969,211.17 113.167,209.833 105,209.833C96.833,209.833 89.031,211.17 81.594,213.844C74.156,216.517 67.375,220.528 61.25,225.875L61.25,228.166ZM105,154.833C101.354,154.833 98.255,153.496 95.703,150.823C93.151,148.149 91.875,144.903 91.875,141.083C91.875,137.264 93.151,134.017 95.703,131.344C98.255,128.67 101.354,127.333 105,127.333C108.646,127.333 111.745,128.67 114.297,131.344C116.849,134.017 118.125,137.264 118.125,141.083C118.125,144.903 116.849,148.149 114.297,150.823C111.745,153.496 108.646,154.833 105,154.833Z" fill="#1C1B1F"/>
</g>
</svg>
