<svg width="862" height="1078" viewBox="0 0 862 1078" fill="none" xmlns="http://www.w3.org/2000/svg" xmlns:xlink="http://www.w3.org/1999/xlink">
<path d="M0,1078L0,327.048L0,0C0,0 65.111,185.515 157.938,193.558C250.764,201.6 365.654,105.662 365.654,105.662C537.21,137.389 623.11,198.414 653.38,105.662C683.652,12.909 861.184,0 861.184,0L856.188,1078L0,1078Z" fill="#FCF5E5" stroke="#000000" stroke-width="1" stroke-miterlimit="3.999327"/>
<path d="M713.57,491.567C713.669,491.06 713.721,490.536 713.721,490C713.721,485.582 710.2,482 705.856,482C705.329,482 704.814,482.053 704.316,482.153L706.138,484.007C709.115,484.152 711.554,486.582 711.713,489.678L713.57,491.567ZM700.736,487.07C700.263,487.934 699.992,488.932 699.992,490C699.992,493.346 702.649,496 705.856,496C706.903,496 707.891,495.717 708.748,495.22L710.184,496.681C708.943,497.515 707.455,498 705.856,498C701.513,498 697.992,494.418 697.992,490C697.992,488.374 698.469,486.861 699.288,485.598L700.736,487.07Z" clip-rule="evenodd" fill-rule="evenodd" fill="#000000"/>
<path d="M718.84,496.928C720.474,495.422 721.807,493.906 722.751,492.738L722.866,492.597C723.509,491.804 724.107,491.069 724.107,490C724.107,488.931 723.509,488.196 722.865,487.403L722.751,487.262C721.33,485.505 719.03,482.961 716.149,480.848C713.276,478.742 709.736,477 705.856,477C703.925,477 702.078,477.432 700.355,478.125L701.891,479.688C703.173,479.252 704.501,479 705.856,479C709.141,479 712.268,480.482 714.966,482.461C717.657,484.433 719.833,486.835 721.196,488.52C722.021,489.541 722.107,489.717 722.107,490C722.107,490.283 722.021,490.459 721.196,491.48C720.28,492.613 718.997,494.069 717.437,495.501L718.84,496.928ZM696.433,482.694C693.887,484.62 691.826,486.9 690.516,488.52C689.691,489.541 689.606,489.717 689.606,490C689.606,490.283 689.691,490.459 690.516,491.48C691.879,493.165 694.056,495.567 696.746,497.539C699.445,499.518 702.572,501 705.856,501C708.202,501 710.467,500.244 712.553,499.091L714.003,500.567C711.583,501.985 708.819,503 705.856,503C701.976,503 698.436,501.258 695.564,499.152C692.682,497.039 690.382,494.495 688.961,492.738L688.847,492.597C688.203,491.804 687.606,491.069 687.606,490C687.606,488.931 688.203,488.196 688.847,487.403L688.961,487.262C690.292,485.617 692.393,483.282 695.02,481.257L696.433,482.694Z" clip-rule="evenodd" fill-rule="evenodd" fill="#000000"/>
<path d="M691.38,470.701L722.839,502.701L724.265,501.299L692.806,469.299L691.38,470.701Z" fill="#000000"/>
<line x1="53.071" y1="835" x2="292.976" y2="835" stroke="#000000" stroke-width="1" stroke-miterlimit="3.999327"/>
<line x1="530.867" y1="835" x2="770.772" y2="835" stroke="#000000" stroke-width="1" stroke-miterlimit="3.999327"/>
<path d="M682.112,539.567C682.21,539.06 682.262,538.536 682.262,538C682.262,533.582 678.741,530 674.398,530C673.87,530 673.355,530.053 672.857,530.153L674.679,532.007C677.656,532.152 680.095,534.582 680.254,537.678L682.112,539.567ZM669.277,535.07C668.804,535.934 668.533,536.932 668.533,538C668.533,541.346 671.191,544 674.398,544C675.444,544 676.433,543.717 677.289,543.22L678.725,544.681C677.484,545.515 675.996,546 674.398,546C670.054,546 666.533,542.418 666.533,538C666.533,536.374 667.01,534.861 667.83,533.598L669.277,535.07Z" clip-rule="evenodd" fill-rule="evenodd" fill="#FFFFFF"/>
<path d="M687.381,544.928C689.015,543.422 690.348,541.906 691.292,540.738L691.407,540.597C692.05,539.804 692.648,539.069 692.648,538C692.648,536.931 692.05,536.196 691.407,535.403L691.292,535.262C689.871,533.505 687.572,530.961 684.69,528.848C681.817,526.742 678.277,525 674.397,525C672.466,525 670.619,525.432 668.896,526.125L670.432,527.688C671.715,527.252 673.043,527 674.397,527C677.682,527 680.809,528.482 683.508,530.461C686.198,532.433 688.375,534.835 689.737,536.52C690.563,537.541 690.648,537.717 690.648,538C690.648,538.283 690.563,538.459 689.737,539.48C688.821,540.613 687.538,542.069 685.978,543.501L687.381,544.928ZM664.974,530.694C662.428,532.62 660.367,534.9 659.058,536.52C658.232,537.541 658.147,537.717 658.147,538C658.147,538.283 658.232,538.459 659.058,539.48C660.42,541.165 662.597,543.567 665.287,545.539C667.986,547.518 671.113,549 674.397,549C676.743,549 679.008,548.244 681.094,547.091L682.545,548.567C680.124,549.985 677.36,551 674.397,551C670.518,551 666.978,549.258 664.105,547.152C661.223,545.039 658.923,542.495 657.502,540.738L657.388,540.597C656.744,539.804 656.147,539.069 656.147,538C656.147,536.931 656.744,536.196 657.388,535.403L657.502,535.262C658.833,533.617 660.934,531.282 663.561,529.257L664.974,530.694Z" clip-rule="evenodd" fill-rule="evenodd" fill="#FFFFFF"/>
<path d="M659.921,518.701L691.38,550.701L692.806,549.299L661.347,517.299L659.921,518.701Z" fill="#FFFFFF"/>
</svg>
