<svg width="100" height="100" viewBox="0 0 100 100" fill="none" xmlns="http://www.w3.org/2000/svg" xmlns:xlink="http://www.w3.org/1999/xlink">
<mask id="mask_0_165_178" style="mask-type:alpha" maskUnits="userSpaceOnUse" x="23.758789" y="23.953613" width="25.984962" height="25.953489">
<rect  x="23.759" y="23.954" width="51.97" height="51.907" fill="#D9D9D9"/>
</mask>
<path d="M99.548,49.907C99.548,77.38 77.25,99.651 49.744,99.651C22.238,99.651 -0.061,77.38 -0.061,49.907C-0.061,22.434 22.238,0.163 49.744,0.163C77.25,0.163 99.548,22.434 99.548,49.907Z" fill="#E5BD31" stroke="#000000" stroke-width="1" stroke-miterlimit="3.999327"/>
<g mask="url(#mask_0_165_178)">
<path d="M36.751,54.233C35.56,54.233 34.54,53.809 33.692,52.962C32.844,52.115 32.42,51.097 32.42,49.907C32.42,48.718 32.844,47.699 33.692,46.852C34.54,46.005 35.56,45.582 36.751,45.582C37.942,45.582 38.961,46.005 39.809,46.852C40.658,47.699 41.082,48.718 41.082,49.907C41.082,51.097 40.658,52.115 39.809,52.962C38.961,53.809 37.942,54.233 36.751,54.233ZM49.743,54.233C48.552,54.233 47.533,53.809 46.685,52.962C45.836,52.115 45.412,51.097 45.412,49.907C45.412,48.718 45.836,47.699 46.685,46.852C47.533,46.005 48.552,45.582 49.743,45.582C50.934,45.582 51.954,46.005 52.802,46.852C53.65,47.699 54.074,48.718 54.074,49.907C54.074,51.097 53.65,52.115 52.802,52.962C51.954,53.809 50.934,54.233 49.743,54.233ZM62.736,54.233C61.545,54.233 60.525,53.809 59.677,52.962C58.829,52.115 58.405,51.097 58.405,49.907C58.405,48.718 58.829,47.699 59.677,46.852C60.525,46.005 61.545,45.582 62.736,45.582C63.927,45.582 64.946,46.005 65.794,46.852C66.643,47.699 67.067,48.718 67.067,49.907C67.067,51.097 66.643,52.115 65.794,52.962C64.946,53.809 63.927,54.233 62.736,54.233Z" fill="#1C1B1F"/>
</g>
</svg>
