<svg width="100" height="100" viewBox="0 0 100 100" fill="none" xmlns="http://www.w3.org/2000/svg" xmlns:xlink="http://www.w3.org/1999/xlink">
<mask id="mask_0_132_38" style="mask-type:alpha" maskUnits="userSpaceOnUse" x="17.022461" y="16.836548" width="32.181377" height="32.907692">
<rect  x="17.022" y="16.837" width="64.363" height="65.815" fill="#D9D9D9"/>
</mask>
<path d="M99.774,49.744C99.774,77.217 77.476,99.488 49.97,99.488C22.463,99.488 0.165,77.217 0.165,49.744C0.165,22.271 22.463,0 49.97,0C77.476,0 99.774,22.271 99.774,49.744Z" fill="#E5BD31" stroke="#000000" stroke-width="1" stroke-miterlimit="3.999327"/>
<g mask="url(#mask_0_132_38)">
<path d="M28.755,74.425L25.001,70.586L52.489,42.477C51.685,40.557 51.573,38.386 52.154,35.964C52.735,33.541 54.009,31.37 55.976,29.451C58.344,27.028 60.982,25.612 63.887,25.2C66.792,24.789 69.161,25.52 70.994,27.394C72.826,29.268 73.541,31.69 73.139,34.661C72.737,37.632 71.351,40.329 68.982,42.751C67.105,44.762 64.982,46.065 62.613,46.659C60.244,47.253 58.121,47.139 56.244,46.316L52.892,49.744L73.273,70.586L69.519,74.425L49.137,53.72L28.755,74.425ZM36.667,50.978L28.621,42.751C26.208,40.283 25.001,37.335 25.001,33.907C25.001,30.479 26.208,27.531 28.621,25.063L45.248,42.203L36.667,50.978Z" fill="#1C1B1F"/>
</g>
</svg>
