<svg width="48" height="48" viewBox="0 0 48 48" fill="none" xmlns="http://www.w3.org/2000/svg" xmlns:xlink="http://www.w3.org/1999/xlink">
<path d="M21,-1C19.895,-1 19,-0.105 19,1C19,2.105 19.895,3 21,3L21,-1ZM21,15C19.895,15 19,15.895 19,17C19,18.105 19.895,19 21,19L21,15ZM27,3C28.105,3 29,2.105 29,1C29,-0.105 28.105,-1 27,-1L27,3ZM27,19C28.105,19 29,18.105 29,17C29,15.895 28.105,15 27,15L27,19ZM21,3L27,3L27,-1L21,-1L21,3ZM27,15L21,15L21,19L27,19L27,15Z" transform="rotate(180 24 9)" fill="#222222"/>
<path d="M28,8L20,8L20,12C20,14.209 18.209,16 16,16C13.791,16 12,14.209 12,12L12,8.152C10.05,8.344 8.737,8.778 7.757,9.757C6,11.515 6,14.343 6,20L6,30C6,35.657 6,38.485 7.757,40.243C9.515,42 12.343,42 18,42L30,42C35.657,42 38.485,42 40.243,40.243C42,38.485 42,35.657 42,30L42,20C42,14.343 42,11.515 40.243,9.757C39.263,8.778 37.95,8.344 36,8.152L36,12C36,14.209 34.209,16 32,16C29.791,16 28,14.209 28,12L28,8ZM14,24C14,22.895 14.895,22 16,22L32,22C33.105,22 34,22.895 34,24C34,25.105 33.105,26 32,26L16,26C14.895,26 14,25.105 14,24ZM16,30C14.895,30 14,30.895 14,32C14,33.105 14.895,34 16,34L32,34C33.105,34 34,33.105 34,32C34,30.895 33.105,30 32,30L16,30Z" clip-rule="evenodd" fill-rule="evenodd" fill="#222222"/>
</svg>
