<svg width="108" height="76" viewBox="0 0 108 76" fill="none" xmlns="http://www.w3.org/2000/svg" xmlns:xlink="http://www.w3.org/1999/xlink">
<path d="M27,63.333L54,63.333L86.5,63.333C90.918,63.333 94.5,59.752 94.5,55.333L94.5,52.333C94.5,47.915 90.918,44.333 86.5,44.333L79.059,44.333C77.737,44.333 77.076,44.333 76.611,44.064C76.146,43.795 75.721,43.054 74.87,41.573C71.536,35.765 63.448,31.667 54,31.667C44.552,31.667 36.464,35.765 33.13,41.573C32.279,43.054 31.854,43.795 31.389,44.064C30.924,44.333 30.263,44.333 28.941,44.333L27,44.333C19.544,44.333 13.5,48.587 13.5,53.833C13.5,59.08 19.544,63.333 27,63.333Z" clip-rule="evenodd" fill-rule="evenodd" fill="#7E869E" fill-opacity="0.25" stroke="#7E869E" stroke-opacity="0.25" stroke-width="0.6" stroke-miterlimit="3.999327"/>
<path d="M49,33.275C42.127,34.417 36.65,37.852 34.17,42.171L34.148,42.211L34.147,42.211C33.741,42.918 33.405,43.503 33.111,43.942C32.825,44.369 32.476,44.823 31.99,45.104C31.537,45.366 31.053,45.456 30.59,45.496C30.149,45.534 29.609,45.534 28.99,45.534L28.941,45.534L27,45.534C23.489,45.534 20.362,46.538 18.144,48.098C15.923,49.661 14.7,51.707 14.7,53.834C14.7,55.962 15.923,58.008 18.144,59.571C20.362,61.131 23.489,62.134 27,62.134L54,62.134L86.5,62.134C90.255,62.134 93.3,59.09 93.3,55.334L93.3,52.334C93.3,48.579 90.255,45.534 86.5,45.534L79.059,45.534L79.01,45.534C78.391,45.534 77.851,45.534 77.41,45.496C76.947,45.456 76.463,45.366 76.009,45.104C75.524,44.823 75.174,44.369 74.888,43.942C74.594,43.503 74.258,42.918 73.852,42.21L73.83,42.171C71.35,37.852 65.873,34.417 59,33.275L59,30.846C66.589,32.013 72.933,35.79 75.911,40.977C76.345,41.733 76.64,42.245 76.882,42.606C77.116,42.955 77.215,43.027 77.215,43.028L77.212,43.027C77.223,43.033 77.302,43.078 77.617,43.105C77.942,43.133 78.376,43.134 79.059,43.134L86.5,43.134C91.581,43.134 95.7,47.253 95.7,52.334L95.7,55.334C95.7,60.415 91.581,64.534 86.5,64.534L54,64.534L27,64.534C23.055,64.534 19.432,63.411 16.763,61.533C14.098,59.658 12.3,56.954 12.3,53.834C12.3,50.715 14.098,48.011 16.763,46.136C19.432,44.258 23.055,43.134 27,43.134L28.941,43.134C29.623,43.134 30.058,43.133 30.383,43.105C30.697,43.078 30.776,43.033 30.788,43.027L30.785,43.028C30.785,43.028 30.785,43.028 30.787,43.027C30.801,43.014 30.903,42.927 31.118,42.606C31.36,42.245 31.654,41.733 32.089,40.977C35.066,35.79 41.411,32.013 49,30.846L49,33.275Z" clip-rule="evenodd" fill-rule="evenodd" fill="#222222"/>
<path d="M38.167,25.333L37.185,24.643L36.699,25.333L37.185,26.024L38.167,25.333ZM69.833,26.533C70.496,26.533 71.033,25.996 71.033,25.333C71.033,24.671 70.496,24.133 69.833,24.133L69.833,26.533ZM49.852,6.643L37.185,24.643L39.148,26.024L51.815,8.024L49.852,6.643ZM37.185,26.024L49.852,44.024L51.815,42.643L39.148,24.643L37.185,26.024ZM38.167,26.533L69.833,26.533L69.833,24.133L38.167,24.133L38.167,26.533Z" transform="rotate(180 54 25.333)" fill="#222222"/>
</svg>
