<svg width="88" height="94" viewBox="0 0 88 94" fill="none" xmlns="http://www.w3.org/2000/svg" xmlns:xlink="http://www.w3.org/1999/xlink">
<mask id="mask_0_130_61" style="mask-type:alpha" maskUnits="userSpaceOnUse" x="0" y="0" width="43.805298" height="46.227966">
<path d="M0,0L87.611,0L87.611,62.456C87.611,79.024 74.179,92.456 57.611,92.456L30,92.456C13.431,92.456 0,79.024 0,62.456Z" fill="#D9D9D9"/>
</mask>
<g mask="url(#mask_0_130_61)">
<path d="M21.903,78.829L32.854,78.829L32.854,55.64L54.757,55.64L54.757,78.829L65.708,78.829L65.708,44.045L43.805,26.654L21.903,44.045L21.903,78.829ZM14.602,86.558L14.602,40.181L43.805,16.992L73.009,40.181L73.009,86.558L47.456,86.558L47.456,63.37L40.155,63.37L40.155,86.558L14.602,86.558Z" fill="#1C1B1F"/>
</g>
</svg>
