<svg width="88" height="94" viewBox="0 0 88 94" fill="none" xmlns="http://www.w3.org/2000/svg" xmlns:xlink="http://www.w3.org/1999/xlink">
<mask id="mask_0_133_289" style="mask-type:alpha" maskUnits="userSpaceOnUse" x="0" y="0" width="43.805298" height="46.227966">
<path d="M0,0L87.611,0L87.611,62.456C87.611,79.024 74.179,92.456 57.611,92.456L30,92.456C13.431,92.456 0,79.024 0,62.456Z" fill="#D9D9D9"/>
</mask>
<g mask="url(#mask_0_133_289)">
<path d="M21.903,73.194L32.854,73.194L32.854,50.08L54.757,50.08L54.757,73.194L65.708,73.194L65.708,38.523L43.805,21.188L21.903,38.523L21.903,73.194ZM14.602,80.899L14.602,34.671L43.805,11.557L73.009,34.671L73.009,80.899L47.456,80.899L47.456,57.785L40.155,57.785L40.155,80.899L14.602,80.899Z" fill="#1C1B1F"/>
</g>
</svg>
