<svg width="48" height="48" viewBox="0 0 48 48" fill="none" xmlns="http://www.w3.org/2000/svg" xmlns:xlink="http://www.w3.org/1999/xlink">
<path d="M6.343,6.343C4,8.686 4,12.458 4,20L4,28C4,35.542 4,39.314 6.343,41.657C8.686,44 12.458,44 20,44L28,44C35.542,44 39.314,44 41.657,41.657C44,39.314 44,35.542 44,28L44,28L44,20C44,14.321 44,10.78 43,8.377L43,34C41.079,34 39.237,33.237 37.879,31.879L36.375,30.375C34.933,28.933 34.211,28.211 33.394,27.907C32.495,27.573 31.505,27.573 30.606,27.907C29.789,28.211 29.067,28.933 27.625,30.375L27.398,30.602C26.228,31.772 25.642,32.358 25.02,32.467C24.537,32.552 24.039,32.456 23.622,32.198C23.085,31.865 22.759,31.104 22.107,29.583L22,29.333C20.501,25.835 19.751,24.086 18.443,23.43C17.785,23.1 17.048,22.958 16.314,23.02C14.857,23.143 13.511,24.489 10.82,27.18L7,31L7,5.775C6.769,5.947 6.55,6.136 6.343,6.343Z" clip-rule="evenodd" fill-rule="evenodd" fill="#222222"/>
<path d="M4,20C4,12.458 4,8.686 6.343,6.343C8.686,4 12.458,4 20,4L28,4C35.542,4 39.314,4 41.657,6.343C44,8.686 44,12.458 44,20L44,28C44,35.542 44,39.314 41.657,41.657C39.314,44 35.542,44 28,44L20,44C12.458,44 8.686,44 6.343,41.657C4,39.314 4,35.542 4,28L4,20Z" fill="#000000" fill-opacity="0" stroke="#222222" stroke-width="2" stroke-miterlimit="3.999327"/>
<circle cx="30" cy="18" r="4" fill="#000000"/>
</svg>
