<svg width="84" height="76" viewBox="0 0 84 76" fill="none" xmlns="http://www.w3.org/2000/svg" xmlns:xlink="http://www.w3.org/1999/xlink">
<path d="M9.343,8.598C7,10.941 7,14.712 7,22.255L7,52.805C7,60.347 7,64.119 9.343,66.462C11.686,68.805 15.458,68.805 23,68.805L61,68.805C68.542,68.805 72.314,68.805 74.657,66.462C77,64.119 77,60.347 77,52.805L77,22.255C77,15.412 77,11.673 75.25,9.289L75.25,53.167C73.082,53.167 71.998,53.167 70.979,52.894C70.452,52.752 69.94,52.557 69.452,52.311C68.51,51.836 67.702,51.114 66.085,49.669L61.33,45.421C58.795,43.155 57.527,42.022 56,42.022C54.473,42.022 53.205,43.155 50.67,45.421L45.97,49.62C44.15,51.246 43.24,52.059 42.26,51.864C41.281,51.668 40.753,50.568 39.698,48.367L36.104,40.875C33.994,36.474 32.938,34.274 30.979,33.882C29.02,33.491 27.2,35.117 23.561,38.369L12.25,48.476L12.25,6.949C11.064,7.296 10.124,7.817 9.343,8.598Z" clip-rule="evenodd" fill-rule="evenodd" fill="#222222"/>
<path d="M7,22.255C7,14.713 7,10.941 9.343,8.598C11.686,6.255 15.458,6.255 23,6.255L61,6.255C68.542,6.255 72.314,6.255 74.657,8.598C77,10.941 77,14.713 77,22.255L77,52.805C77,60.347 77,64.119 74.657,66.462C72.314,68.805 68.542,68.805 61,68.805L23,68.805C15.458,68.805 11.686,68.805 9.343,66.462C7,64.119 7,60.347 7,52.805L7,22.255Z" fill="#E4D54F" fill-opacity="0" stroke="#222222" stroke-width="2" stroke-miterlimit="3.999327"/>
<path d="M59.5,28.147C59.5,31.602 56.366,34.402 52.5,34.402C48.634,34.402 45.5,31.602 45.5,28.147C45.5,24.693 48.634,21.892 52.5,21.892C56.366,21.892 59.5,24.693 59.5,28.147Z" fill="#000000"/>
</svg>
