<svg width="48" height="48" viewBox="0 0 48 48" fill="none" xmlns="http://www.w3.org/2000/svg" xmlns:xlink="http://www.w3.org/1999/xlink">
<mask id="mask_0_53_401" style="mask-type:alpha" maskUnits="userSpaceOnUse" x="0" y="0" width="24" height="24">
<rect  x="0" y="0" width="48" height="48" fill="#D9D9D9"/>
</mask>
<g mask="url(#mask_0_53_401)">
<path d="M8,40C6.9,40 5.958,39.608 5.175,38.825C4.392,38.042 4,37.1 4,36L4,12C4,10.9 4.392,9.958 5.175,9.175C5.958,8.392 6.9,8 8,8L40,8C41.1,8 42.042,8.392 42.825,9.175C43.608,9.958 44,10.9 44,12L44,36C44,37.1 43.608,38.042 42.825,38.825C42.042,39.608 41.1,40 40,40L8,40ZM24,26L8,16L8,36L40,36L40,16L24,26ZM24,22L40,12L8,12L24,22ZM8,16L8,12L8,36L8,16Z" fill="#1C1B1F"/>
</g>
</svg>
