<svg width="62" height="50" viewBox="0 0 62 50" fill="none" xmlns="http://www.w3.org/2000/svg" xmlns:xlink="http://www.w3.org/1999/xlink">
<mask id="mask_0_51_185" style="mask-type:alpha" maskUnits="userSpaceOnUse" x="0" y="0" width="31" height="25">
<rect  x="0" y="0" width="62" height="50" fill="#D9D9D9"/>
</mask>
<g mask="url(#mask_0_51_185)">
<path d="M31,41.667C29.579,41.667 28.363,41.259 27.351,40.443C26.339,39.627 25.833,38.646 25.833,37.5C25.833,36.354 26.339,35.373 27.351,34.557C28.363,33.741 29.579,33.333 31,33.333C32.421,33.333 33.637,33.741 34.649,34.557C35.661,35.373 36.167,36.354 36.167,37.5C36.167,38.646 35.661,39.627 34.649,40.443C33.637,41.259 32.421,41.667 31,41.667ZM31,29.167C29.579,29.167 28.363,28.759 27.351,27.943C26.339,27.127 25.833,26.146 25.833,25C25.833,23.854 26.339,22.873 27.351,22.057C28.363,21.241 29.579,20.833 31,20.833C32.421,20.833 33.637,21.241 34.649,22.057C35.661,22.873 36.167,23.854 36.167,25C36.167,26.146 35.661,27.127 34.649,27.943C33.637,28.759 32.421,29.167 31,29.167ZM31,16.667C29.579,16.667 28.363,16.259 27.351,15.443C26.339,14.627 25.833,13.646 25.833,12.5C25.833,11.354 26.339,10.373 27.351,9.557C28.363,8.741 29.579,8.333 31,8.333C32.421,8.333 33.637,8.741 34.649,9.557C35.661,10.373 36.167,11.354 36.167,12.5C36.167,13.646 35.661,14.627 34.649,15.443C33.637,16.259 32.421,16.667 31,16.667Z" fill="#1C1B1F"/>
</g>
</svg>
