<svg width="96" height="84" viewBox="0 0 96 84" fill="none" xmlns="http://www.w3.org/2000/svg" xmlns:xlink="http://www.w3.org/1999/xlink">
<mask id="mask_0_133_229" style="mask-type:alpha" maskUnits="userSpaceOnUse" x="0" y="0" width="48" height="42">
<path d="M0,0L96,0L96,54C96,70.569 82.569,84 66,84L30,84C13.431,84 0,70.569 0,54Z" fill="#D9D9D9"/>
</mask>
<g mask="url(#mask_0_133_229)">
<path d="M8,35C8,29.167 9.483,23.815 12.45,18.944C15.417,14.073 19.4,10.033 24.4,6.825L29.1,12.425C25.1,14.992 21.917,18.229 19.55,22.138C17.183,26.046 16,30.334 16,35L8,35ZM80,35C80,30.334 78.817,26.046 76.45,22.138C74.083,18.229 70.9,14.992 66.9,12.425L71.6,6.825C76.6,10.033 80.583,14.073 83.55,18.944C86.517,23.815 88,29.167 88,35L80,35ZM16,66.5L16,59.5L24,59.5L24,35C24,30.159 25.667,25.856 29,22.094C32.333,18.331 36.667,15.867 42,14.7L42,12.25C42,10.792 42.583,9.552 43.75,8.531C44.917,7.511 46.333,7 48,7C49.667,7 51.083,7.511 52.25,8.531C53.417,9.552 54,10.792 54,12.25L54,14.7C59.333,15.867 63.667,18.331 67,22.094C70.333,25.856 72,30.159 72,35L72,59.5L80,59.5L80,66.5L16,66.5ZM48,77C45.8,77 43.917,76.315 42.35,74.944C40.783,73.573 40,71.925 40,70L56,70C56,71.925 55.217,73.573 53.65,74.944C52.083,76.315 50.2,77 48,77ZM32,59.5L64,59.5L64,35C64,31.15 62.433,27.854 59.3,25.113C56.167,22.371 52.4,21 48,21C43.6,21 39.833,22.371 36.7,25.113C33.567,27.854 32,31.15 32,35L32,59.5Z" fill="#1C1B1F"/>
</g>
</svg>
