<svg width="96" height="84" viewBox="0 0 96 84" fill="none" xmlns="http://www.w3.org/2000/svg" xmlns:xlink="http://www.w3.org/1999/xlink">
<mask id="mask_0_130_72" style="mask-type:alpha" maskUnits="userSpaceOnUse" x="0" y="0" width="48" height="42">
<path d="M0,0L96,0L96,54C96,70.569 82.569,84 66,84L30,84C13.431,84 0,70.569 0,54Z" fill="#D9D9D9"/>
</mask>
<g mask="url(#mask_0_130_72)">
<path d="M8,40.55C8,34.698 9.483,29.328 12.45,24.442C15.417,19.555 19.4,15.502 24.4,12.284L29.1,17.902C25.1,20.477 21.917,23.725 19.55,27.646C17.183,31.567 16,35.868 16,40.55L8,40.55ZM80,40.55C80,35.868 78.817,31.567 76.45,27.646C74.084,23.725 70.9,20.477 66.9,17.902L71.6,12.284C76.6,15.502 80.584,19.555 83.55,24.442C86.517,29.328 88,34.698 88,40.55L80,40.55ZM16,72.152L16,65.129L24,65.129L24,40.55C24,35.693 25.667,31.376 29,27.602C32.334,23.827 36.667,21.354 42,20.184L42,17.726C42,16.263 42.584,15.019 43.75,13.995C44.917,12.971 46.334,12.459 48,12.459C49.667,12.459 51.084,12.971 52.25,13.995C53.417,15.019 54,16.263 54,17.726L54,20.184C59.334,21.354 63.667,23.827 67,27.602C70.334,31.376 72,35.693 72,40.55L72,65.129L80,65.129L80,72.152L16,72.152ZM48,82.686C45.8,82.686 43.917,81.998 42.35,80.623C40.784,79.248 40,77.595 40,75.663L56,75.663C56,77.595 55.217,79.248 53.65,80.623C52.084,81.998 50.2,82.686 48,82.686ZM32,65.129L64,65.129L64,40.55C64,36.687 62.434,33.381 59.3,30.63C56.167,27.88 52.4,26.504 48,26.504C43.6,26.504 39.834,27.88 36.7,30.63C33.567,33.381 32,36.687 32,40.55L32,65.129Z" fill="#1C1B1F"/>
</g>
</svg>
