<svg width="48" height="48" viewBox="0 0 48 48" fill="none" xmlns="http://www.w3.org/2000/svg" xmlns:xlink="http://www.w3.org/1999/xlink">
<path d="M6,6L6,4L3.225,4L4.103,6.632L6,6ZM6,30L4.103,29.368L3.225,32L6,32L6,30ZM6,18L4.103,17.368L3.892,18L4.103,18.632L6,18ZM8,12L9.897,12.632L10.108,12L9.897,11.368L8,12ZM8,24L9.897,24.632L10.108,24L9.897,23.368L8,24ZM40.828,7.172L42.243,5.757L40.828,7.172ZM30.468,41.847L29.404,43.54L30.468,41.847ZM30.153,41.532L31.847,40.468L30.153,41.532ZM36,40L31.714,40L31.714,44L36,44L36,40ZM30,32L36,32L36,28L30,28L30,32ZM34,4L6,4L6,8L34,8L34,4ZM6,32L30,32L30,28L6,28L6,32ZM32,40.286L32,30L28,30L28,40.286L32,40.286ZM44,36L44,14L40,14L40,36L44,36ZM7.897,18.632L9.897,12.632L6.103,11.368L4.103,17.368L7.897,18.632ZM9.897,11.368L7.897,5.368L4.103,6.632L6.103,12.632L9.897,11.368ZM7.897,30.632L9.897,24.632L6.103,23.368L4.103,29.368L7.897,30.632ZM9.897,23.368L7.897,17.368L4.103,18.632L6.103,24.632L9.897,23.368ZM34,8C35.942,8 37.198,8.004 38.123,8.129C38.99,8.245 39.262,8.434 39.414,8.586L42.243,5.757C41.223,4.738 39.967,4.341 38.656,4.164C37.402,3.996 35.829,4 34,4L34,8ZM44,14C44,12.171 44.004,10.598 43.836,9.344C43.659,8.033 43.262,6.777 42.243,5.757L39.414,8.586C39.566,8.738 39.755,9.01 39.871,9.877C39.996,10.802 40,12.058 40,14L44,14ZM36,32C38.209,32 40,33.791 40,36L44,36C44,31.582 40.418,28 36,28L36,32ZM31.714,40C31.542,40 31.416,40 31.309,39.998C31.202,39.996 31.149,39.992 31.125,39.99C31.102,39.988 31.142,39.99 31.217,40.011C31.3,40.035 31.412,40.078 31.532,40.153L29.404,43.54C29.898,43.851 30.392,43.938 30.739,43.972C31.055,44.002 31.42,44 31.714,44L31.714,40ZM28,40.286C28,40.58 27.998,40.945 28.028,41.261C28.062,41.608 28.149,42.102 28.46,42.596L31.847,40.468C31.922,40.588 31.965,40.7 31.989,40.783C32.01,40.858 32.012,40.898 32.01,40.875C32.008,40.851 32.004,40.798 32.002,40.691C32,40.584 32,40.458 32,40.286L28,40.286ZM31.532,40.153C31.659,40.233 31.767,40.341 31.847,40.468L28.46,42.596C28.7,42.978 29.022,43.3 29.404,43.54L31.532,40.153ZM40,36C40,38.209 38.209,40 36,40L36,44C40.418,44 44,40.418 44,36L40,36Z" transform="rotate(-180 24 24)" fill="#33363F"/>
<line x1="14" y1="12" x2="22" y2="12" stroke="#33363F" stroke-width="2" stroke-miterlimit="3.999327" stroke-linecap="round"/>
<line x1="16" y1="24" x2="14" y2="24" stroke="#33363F" stroke-width="2" stroke-miterlimit="3.999327" stroke-linecap="round"/>
<line x1="14" y1="28" x2="20" y2="28" stroke="#33363F" stroke-width="2" stroke-miterlimit="3.999327" stroke-linecap="round"/>
</svg>
