<svg width="48" height="48" viewBox="0 0 48 48" fill="none" xmlns="http://www.w3.org/2000/svg" xmlns:xlink="http://www.w3.org/1999/xlink">
<mask id="mask_0_53_469" style="mask-type:alpha" maskUnits="userSpaceOnUse" x="0" y="0" width="24" height="24">
<rect  x="0" y="0" width="48" height="48" fill="#D9D9D9"/>
</mask>
<g mask="url(#mask_0_53_469)">
<path d="M14,46C12.9,46 11.958,45.608 11.175,44.825C10.392,44.042 10,43.1 10,42L10,6C10,4.9 10.392,3.958 11.175,3.175C11.958,2.392 12.9,2 14,2L34,2C35.1,2 36.042,2.392 36.825,3.175C37.608,3.958 38,4.9 38,6L38,42C38,43.1 37.608,44.042 36.825,44.825C36.042,45.608 35.1,46 34,46L14,46ZM14,36L14,42L34,42L34,36L14,36ZM24,41C24.567,41 25.042,40.808 25.425,40.425C25.808,40.042 26,39.567 26,39C26,38.433 25.808,37.958 25.425,37.575C25.042,37.192 24.567,37 24,37C23.433,37 22.958,37.192 22.575,37.575C22.192,37.958 22,38.433 22,39C22,39.567 22.192,40.042 22.575,40.425C22.958,40.808 23.433,41 24,41ZM14,32L34,32L34,12L14,12L14,32ZM14,8L34,8L34,6L14,6L14,8Z" fill="#1C1B1F"/>
</g>
</svg>
