<svg width="98" height="62" viewBox="0 0 98 62" fill="none" xmlns="http://www.w3.org/2000/svg" xmlns:xlink="http://www.w3.org/1999/xlink">
<path d="M40.833,49.083L39.764,47.393L37.092,49.083L39.764,50.774L40.833,49.083ZM56.097,37.06L39.764,47.393L41.902,50.774L58.236,40.44L56.097,37.06ZM39.764,50.774L56.097,61.107L58.236,57.726L41.902,47.393L39.764,50.774Z" fill="#33363F"/>
<path d="M25.723,23.306C26.468,22.491 26.41,21.226 25.594,20.481C24.778,19.736 23.513,19.794 22.768,20.61L25.723,23.306ZM20.416,31L18.416,31L20.416,31ZM24.246,40.042L25.723,38.693L24.246,40.042ZM34.708,46.661L34.022,48.539L34.708,46.661ZM49,51.083C50.104,51.083 51,50.188 51,49.083C51,47.979 50.104,47.083 49,47.083L49,51.083ZM22.768,20.61C19.985,23.66 18.416,27.242 18.416,31L22.416,31C22.416,28.409 23.489,25.755 25.723,23.306L22.768,20.61ZM18.416,31C18.416,34.758 19.985,38.34 22.768,41.39L25.723,38.693C23.489,36.245 22.416,33.591 22.416,31L18.416,31ZM22.768,41.39C25.541,44.428 29.446,46.868 34.022,48.539L35.394,44.782C31.279,43.279 27.968,41.154 25.723,38.693L22.768,41.39ZM34.022,48.539C38.605,50.213 43.768,51.083 49,51.083L49,47.083C44.197,47.083 39.502,46.282 35.394,44.782L34.022,48.539Z" transform="rotate(360 49 31)" fill="#33363F"/>
<path d="M40.834,12.917L39.764,11.227L37.093,12.917L39.764,14.607L40.834,12.917ZM56.098,0.893L39.764,11.227L41.903,14.607L58.236,4.273L56.098,0.893ZM39.764,14.607L56.098,24.94L58.236,21.56L41.903,11.227L39.764,14.607Z" transform="rotate(360 49 12.917)" fill="#33363F"/>
<path d="M25.724,23.307C26.468,22.491 26.41,21.226 25.595,20.481C24.779,19.736 23.514,19.794 22.769,20.61L25.724,23.307ZM20.417,31L18.417,31L20.417,31ZM24.246,40.042L25.724,38.694L24.246,40.042ZM34.709,46.661L34.022,48.539L34.709,46.661ZM49,51.083C50.105,51.083 51,50.188 51,49.083C51,47.979 50.105,47.083 49,47.083L49,51.083ZM22.769,20.61C19.986,23.66 18.417,27.242 18.417,31L22.417,31C22.417,28.409 23.49,25.755 25.724,23.307L22.769,20.61ZM18.417,31C18.417,34.758 19.986,38.34 22.769,41.39L25.724,38.694C23.49,36.246 22.417,33.591 22.417,31L18.417,31ZM22.769,41.39C25.541,44.428 29.447,46.868 34.022,48.539L35.395,44.782C31.28,43.279 27.969,41.154 25.724,38.694L22.769,41.39ZM34.022,48.539C38.605,50.213 43.769,51.083 49,51.083L49,47.083C44.197,47.083 39.502,46.282 35.395,44.782L34.022,48.539Z" fill="#33363F"/>
</svg>
