<svg width="48" height="48" viewBox="0 0 48 48" fill="none" xmlns="http://www.w3.org/2000/svg" xmlns:xlink="http://www.w3.org/1999/xlink">
<path d="M4,24L3.219,23.375L2.719,24L3.219,24.625L4,24ZM22,25C22.552,25 23,24.552 23,24C23,23.448 22.552,23 22,23L22,25ZM11.219,13.375L3.219,23.375L4.781,24.625L12.781,14.625L11.219,13.375ZM3.219,24.625L11.219,34.625L12.781,33.375L4.781,23.375L3.219,24.625ZM4,25L22,25L22,23L4,23L4,25Z" fill="#222222"/>
<path d="M26.685,41.114L26.849,40.128L26.685,41.114ZM41.878,41.495L42.525,42.258L41.878,41.495ZM30.027,6.329L29.863,5.342L30.027,6.329ZM41.878,6.505L42.525,5.742L41.878,6.505ZM26.849,7.872L30.192,7.315L29.863,5.342L26.52,5.899L26.849,7.872ZM43,18.166L43,29.834L45,29.834L45,18.166L43,18.166ZM30.192,40.685L26.849,40.128L26.52,42.101L29.863,42.658L30.192,40.685ZM21,16.264L21,14.777L19,14.777L19,16.264L21,16.264ZM21,33.223L21,32.132L19,32.132L19,33.223L21,33.223ZM26.849,40.128C25.228,39.857 24.103,39.668 23.26,39.417C22.444,39.174 22.012,38.906 21.711,38.551L20.185,39.843C20.832,40.607 21.672,41.031 22.689,41.334C23.68,41.629 24.949,41.839 26.52,42.101L26.849,40.128ZM19,33.223C19,34.816 18.998,36.103 19.126,37.128C19.258,38.181 19.538,39.08 20.185,39.843L21.711,38.551C21.41,38.195 21.216,37.725 21.111,36.88C21.002,36.007 21,34.867 21,33.223L19,33.223ZM43,29.834C43,33.153 42.998,35.534 42.745,37.316C42.496,39.07 42.026,40.059 41.232,40.732L42.525,42.258C43.852,41.134 44.443,39.58 44.725,37.597C45.002,35.642 45,33.092 45,29.834L43,29.834ZM29.863,42.658C33.076,43.193 35.591,43.615 37.565,43.662C39.568,43.711 41.197,43.383 42.525,42.258L41.232,40.732C40.438,41.405 39.385,41.706 37.614,41.663C35.814,41.62 33.465,41.23 30.192,40.685L29.863,42.658ZM30.192,7.315C33.465,6.77 35.814,6.38 37.614,6.337C39.385,6.294 40.438,6.595 41.232,7.268L42.525,5.742C41.197,4.617 39.568,4.289 37.565,4.338C35.591,4.385 33.076,4.807 29.863,5.342L30.192,7.315ZM45,18.166C45,14.908 45.002,12.358 44.725,10.403C44.443,8.42 43.852,6.866 42.525,5.742L41.232,7.268C42.026,7.941 42.496,8.93 42.745,10.684C42.998,12.466 43,14.847 43,18.166L45,18.166ZM26.52,5.899C24.949,6.161 23.68,6.371 22.689,6.666C21.672,6.969 20.832,7.393 20.185,8.157L21.711,9.449C22.012,9.094 22.444,8.826 23.26,8.583C24.103,8.332 25.228,8.143 26.849,7.872L26.52,5.899ZM21,14.777C21,13.133 21.002,11.993 21.111,11.12C21.216,10.275 21.41,9.805 21.711,9.449L20.185,8.157C19.538,8.92 19.258,9.819 19.126,10.872C18.998,11.897 19,13.184 19,14.777L21,14.777Z" fill="#222222"/>
</svg>
