<svg width="292" height="78" viewBox="0 0 292 78" fill="none" xmlns="http://www.w3.org/2000/svg" xmlns:xlink="http://www.w3.org/1999/xlink">
<path d="M24.333,39L23.7,37.103L18.018,39L23.7,40.897L24.333,39ZM133.833,41C134.938,41 135.833,40.105 135.833,39C135.833,37.895 134.938,37 133.833,37L133.833,41ZM72.366,20.853L23.7,37.103L24.966,40.897L73.633,24.647L72.366,20.853ZM23.7,40.897L72.366,57.147L73.633,53.353L24.966,37.103L23.7,40.897ZM24.333,41L133.833,41L133.833,37L24.333,37L24.333,41Z" fill="#33363F"/>
<path d="M129.311,65.34L129.222,67.338L129.311,65.34ZM122.776,63.939L121.331,65.321L122.776,63.939ZM255.133,70.942L255.044,72.94L255.133,70.942ZM265.814,69.563L264.432,68.118L265.814,69.563ZM255.133,7.058L255.044,5.06L255.133,7.058ZM265.814,8.437L267.197,6.992L265.814,8.437ZM129.311,12.66L129.4,14.658L129.311,12.66ZM122.776,14.061L121.331,12.679L122.776,14.061ZM129.4,14.658L255.222,9.056L255.044,5.06L129.222,10.662L129.4,14.658ZM265.667,19.046L265.667,58.954L269.667,58.954L269.667,19.046L265.667,19.046ZM255.222,68.944L129.4,63.342L129.222,67.338L255.044,72.94L255.222,68.944ZM123.667,26.429L123.667,20.652L119.667,20.652L119.667,26.429L123.667,26.429ZM123.667,57.348L123.667,52.214L119.667,52.214L119.667,57.348L123.667,57.348ZM129.4,63.342C127.537,63.259 126.336,63.202 125.453,63.045C124.627,62.898 124.368,62.709 124.222,62.557L121.331,65.321C122.295,66.329 123.494,66.76 124.754,66.983C125.957,67.197 127.469,67.26 129.222,67.338L129.4,63.342ZM119.667,57.348C119.667,59.103 119.663,60.617 119.823,61.828C119.99,63.097 120.368,64.314 121.331,65.321L124.222,62.557C124.076,62.404 123.898,62.136 123.788,61.305C123.671,60.416 123.667,59.214 123.667,57.348L119.667,57.348ZM265.667,58.954C265.667,61.957 265.663,64.005 265.454,65.532C265.253,67.002 264.899,67.671 264.432,68.118L267.197,71.008C268.582,69.683 269.155,67.993 269.417,66.074C269.671,64.213 269.667,61.842 269.667,58.954L265.667,58.954ZM255.044,72.94C257.929,73.068 260.298,73.178 262.168,73.007C264.097,72.83 265.811,72.333 267.197,71.008L264.432,68.118C263.965,68.565 263.281,68.888 261.804,69.024C260.268,69.164 258.223,69.078 255.222,68.944L255.044,72.94ZM255.222,9.056C258.223,8.922 260.268,8.836 261.804,8.976C263.281,9.112 263.965,9.435 264.432,9.882L267.197,6.992C265.811,5.667 264.097,5.17 262.168,4.993C260.298,4.822 257.929,4.932 255.044,5.06L255.222,9.056ZM269.667,19.046C269.667,16.158 269.671,13.787 269.417,11.926C269.155,10.007 268.582,8.317 267.197,6.992L264.432,9.882C264.899,10.329 265.253,10.998 265.454,12.468C265.663,13.995 265.667,16.043 265.667,19.046L269.667,19.046ZM129.222,10.662C127.469,10.74 125.957,10.803 124.754,11.017C123.494,11.24 122.295,11.671 121.331,12.679L124.222,15.443C124.368,15.291 124.627,15.102 125.453,14.955C126.336,14.798 127.537,14.741 129.4,14.658L129.222,10.662ZM123.667,20.652C123.667,18.786 123.671,17.584 123.788,16.695C123.898,15.864 124.076,15.596 124.222,15.443L121.331,12.679C120.368,13.686 119.99,14.903 119.823,16.172C119.663,17.383 119.667,18.897 119.667,20.652L123.667,20.652Z" fill="#33363F"/>
</svg>
