<svg width="48" height="48" viewBox="0 0 48 48" fill="none" xmlns="http://www.w3.org/2000/svg" xmlns:xlink="http://www.w3.org/1999/xlink">
<path d="M23.131,42.696L22.849,40.716L23.131,42.696ZM15.379,42.41L16.69,40.899L15.379,42.41ZM40.533,38.727L42.044,40.038L40.533,38.727ZM40.533,9.273L39.022,10.583L40.533,9.273ZM22.849,7.284L31.414,8.508L31.98,4.548L23.414,3.325L22.849,7.284ZM40,18.408L40,29.592L44,29.592L44,18.408L40,18.408ZM31.414,39.492L22.849,40.716L23.414,44.675L31.98,43.452L31.414,39.492ZM16,14.264L16,13.224L12,13.224L12,14.264L16,14.264ZM16,34.776L16,34.132L12,34.132L12,34.776L16,34.776ZM22.849,40.716C20.664,41.028 19.236,41.227 18.176,41.229C17.172,41.231 16.861,41.047 16.69,40.899L14.069,43.921C15.277,44.968 16.718,45.231 18.183,45.229C19.591,45.226 21.35,44.97 23.414,44.675L22.849,40.716ZM12,34.776C12,36.861 11.995,38.638 12.192,40.033C12.397,41.484 12.861,42.873 14.069,43.921L16.69,40.899C16.518,40.75 16.293,40.469 16.153,39.474C16.005,38.424 16,36.982 16,34.776L12,34.776ZM40,29.592C40,32.126 39.996,33.838 39.832,35.136C39.675,36.377 39.398,36.984 39.022,37.417L42.044,40.038C43.135,38.78 43.591,37.299 43.801,35.637C44.004,34.031 44,32.021 44,29.592L40,29.592ZM31.98,43.452C34.384,43.108 36.374,42.828 37.935,42.4C39.551,41.957 40.952,41.296 42.044,40.038L39.022,37.417C38.646,37.851 38.085,38.211 36.878,38.542C35.617,38.888 33.922,39.134 31.414,39.492L31.98,43.452ZM31.414,8.508C33.922,8.866 35.617,9.112 36.878,9.458C38.085,9.789 38.646,10.149 39.022,10.583L42.044,7.962C40.952,6.704 39.551,6.043 37.935,5.6C36.374,5.172 34.384,4.892 31.98,4.548L31.414,8.508ZM44,18.408C44,15.979 44.004,13.969 43.801,12.363C43.591,10.701 43.135,9.22 42.044,7.962L39.022,10.583C39.398,11.016 39.675,11.622 39.832,12.864C39.996,14.162 40,15.874 40,18.408L44,18.408ZM23.414,3.325C21.35,3.03 19.591,2.774 18.183,2.771C16.718,2.769 15.277,3.032 14.069,4.079L16.69,7.101C16.861,6.953 17.172,6.769 18.176,6.771C19.236,6.773 20.664,6.972 22.849,7.284L23.414,3.325ZM16,13.224C16,11.018 16.005,9.576 16.153,8.526C16.293,7.531 16.518,7.25 16.69,7.101L14.069,4.079C12.861,5.127 12.397,6.516 12.192,7.967C11.995,9.362 12,11.139 12,13.224L16,13.224Z" fill="#33363F"/>
<path d="M8,24L6.438,22.751L5.439,24L6.438,25.249L8,24ZM32,26C33.105,26 34,25.105 34,24C34,22.895 33.105,22 32,22L32,26ZM14.438,12.751L6.438,22.751L9.562,25.249L17.562,15.249L14.438,12.751ZM6.438,25.249L14.438,35.249L17.562,32.751L9.562,22.751L6.438,25.249ZM8,26L32,26L32,22L8,22L8,26Z" transform="rotate(360 20 24)" fill="#33363F"/>
</svg>
