<svg width="140" height="98" viewBox="0 0 140 98" fill="none" xmlns="http://www.w3.org/2000/svg" xmlns:xlink="http://www.w3.org/1999/xlink">
<mask id="mask_0_132_29" style="mask-type:alpha" maskUnits="userSpaceOnUse" x="0" y="0" width="70" height="49">
<rect  x="0" y="0" width="140" height="98" fill="#D9D9D9"/>
</mask>
<g mask="url(#mask_0_132_29)">
<path d="M68.572,35.77C69.786,35.77 70.804,35.441 71.625,34.784C72.447,34.126 72.857,33.312 72.857,32.34C72.857,31.368 72.447,30.553 71.625,29.896C70.804,29.239 69.786,28.91 68.572,28.91C67.357,28.91 66.34,29.239 65.518,29.896C64.697,30.553 64.286,31.368 64.286,32.34C64.286,33.312 64.697,34.126 65.518,34.784C66.34,35.441 67.357,35.77 68.572,35.77ZM85.715,35.77C86.929,35.77 87.947,35.441 88.768,34.784C89.59,34.126 90,33.312 90,32.34C90,31.368 89.59,30.553 88.768,29.896C87.947,29.239 86.929,28.91 85.715,28.91C84.5,28.91 83.482,29.239 82.661,29.896C81.84,30.553 81.429,31.368 81.429,32.34C81.429,33.312 81.84,34.126 82.661,34.784C83.482,35.441 84.5,35.77 85.715,35.77ZM102.857,35.77C104.072,35.77 105.09,35.441 105.911,34.784C106.732,34.126 107.143,33.312 107.143,32.34C107.143,31.368 106.732,30.553 105.911,29.896C105.09,29.239 104.072,28.91 102.857,28.91C101.643,28.91 100.625,29.239 99.804,29.896C98.982,30.553 98.572,31.368 98.572,32.34C98.572,33.312 98.982,34.126 99.804,34.784C100.625,35.441 101.643,35.77 102.857,35.77ZM42.857,73.5L42.857,11.76C42.857,9.873 43.697,8.258 45.375,6.915C47.054,5.571 49.072,4.9 51.429,4.9L120,4.9C122.357,4.9 124.375,5.571 126.054,6.915C127.732,8.258 128.572,9.873 128.572,11.76L128.572,52.92C128.572,54.806 127.732,56.421 126.054,57.765C124.375,59.108 122.357,59.78 120,59.78L60,59.78L42.857,73.5ZM56.357,52.92L120,52.92L120,11.76L51.429,11.76L51.429,56.779L56.357,52.92Z" fill="#1C1B1F"/>
</g>
</svg>
