<svg width="68" height="66" viewBox="0 0 68 66" fill="none" xmlns="http://www.w3.org/2000/svg" xmlns:xlink="http://www.w3.org/1999/xlink">
<mask id="mask_0_51_179" style="mask-type:alpha" maskUnits="userSpaceOnUse" x="0" y="0" width="34" height="33">
<rect  x="0" y="0" width="68" height="66" fill="#D9D9D9"/>
</mask>
<g mask="url(#mask_0_51_179)">
<path d="M22.667,30.25C23.469,30.25 24.142,29.986 24.685,29.459C25.228,28.932 25.5,28.279 25.5,27.5C25.5,26.721 25.228,26.068 24.685,25.541C24.142,25.014 23.469,24.75 22.667,24.75C21.864,24.75 21.191,25.014 20.648,25.541C20.105,26.068 19.833,26.721 19.833,27.5C19.833,28.279 20.105,28.932 20.648,29.459C21.191,29.986 21.864,30.25 22.667,30.25ZM34,30.25C34.803,30.25 35.476,29.986 36.019,29.459C36.562,28.932 36.833,28.279 36.833,27.5C36.833,26.721 36.562,26.068 36.019,25.541C35.476,25.014 34.803,24.75 34,24.75C33.197,24.75 32.524,25.014 31.981,25.541C31.438,26.068 31.167,26.721 31.167,27.5C31.167,28.279 31.438,28.932 31.981,29.459C32.524,29.986 33.197,30.25 34,30.25ZM45.333,30.25C46.136,30.25 46.809,29.986 47.352,29.459C47.895,28.932 48.167,28.279 48.167,27.5C48.167,26.721 47.895,26.068 47.352,25.541C46.809,25.014 46.136,24.75 45.333,24.75C44.53,24.75 43.858,25.014 43.315,25.541C42.771,26.068 42.5,26.721 42.5,27.5C42.5,28.279 42.771,28.932 43.315,29.459C43.858,29.986 44.53,30.25 45.333,30.25ZM5.667,60.5L5.667,11C5.667,9.488 6.221,8.193 7.331,7.116C8.441,6.039 9.775,5.5 11.333,5.5L56.667,5.5C58.225,5.5 59.559,6.039 60.669,7.116C61.778,8.193 62.333,9.488 62.333,11L62.333,44C62.333,45.513 61.778,46.807 60.669,47.884C59.559,48.961 58.225,49.5 56.667,49.5L17,49.5L5.667,60.5ZM14.592,44L56.667,44L56.667,11L11.333,11L11.333,47.094L14.592,44Z" fill="#1C1B1F"/>
</g>
</svg>
