<svg width="36" height="34" viewBox="0 0 36 34" fill="none" xmlns="http://www.w3.org/2000/svg" xmlns:xlink="http://www.w3.org/1999/xlink">
<path d="M22,0L14,0L14,4C14,6.209 12.209,8 10,8C7.791,8 6,6.209 6,4L6,0.152C4.05,0.344 2.737,0.778 1.757,1.757C0,3.515 0,6.343 0,12L0,22C0,27.657 0,30.485 1.757,32.243C3.515,34 6.343,34 12,34L24,34C29.657,34 32.485,34 34.243,32.243C36,30.485 36,27.657 36,22L36,12C36,6.343 36,3.515 34.243,1.757C33.263,0.778 31.95,0.344 30,0.152L30,4C30,6.209 28.209,8 26,8C23.791,8 22,6.209 22,4L22,0ZM8,16C8,14.895 8.895,14 10,14L26,14C27.105,14 28,14.895 28,16C28,17.105 27.105,18 26,18L10,18C8.895,18 8,17.105 8,16ZM10,22C8.895,22 8,22.895 8,24C8,25.105 8.895,26 10,26L26,26C27.105,26 28,25.105 28,24C28,22.895 27.105,22 26,22L10,22Z" clip-rule="evenodd" fill-rule="evenodd" fill="#222222"/>
</svg>
