<svg width="86" height="86" viewBox="0 0 86 86" fill="none" xmlns="http://www.w3.org/2000/svg" xmlns:xlink="http://www.w3.org/1999/xlink">
<path d="M50.694,3.935L49.694,3.935L49.694,3.985L49.699,4.035L50.694,3.935ZM50.694,3.935L51.694,3.935L51.694,3.885L51.689,3.836L50.694,3.935ZM51.327,10.271L50.332,10.371L50.332,10.371L51.327,10.271ZM52.923,15.63L52.54,16.554L52.54,16.554L52.923,15.63ZM57.84,12.969L58.474,13.743L58.474,13.743L57.84,12.969ZM62.768,8.937L62.135,8.163L62.135,8.163L62.768,8.937ZM65.535,7.341L65.585,6.343L65.585,6.343L65.535,7.341ZM68.13,9.204L67.423,9.912L67.423,9.912L68.13,9.204ZM74.796,15.87L75.503,15.163L75.503,15.163L74.796,15.87ZM76.659,18.465L77.657,18.415L77.657,18.415L76.659,18.465ZM75.063,21.232L74.289,20.598L74.289,20.598L75.063,21.232ZM71.031,26.16L71.805,26.793L71.805,26.793L71.031,26.16ZM68.37,31.077L67.446,31.46L67.446,31.46L68.37,31.077ZM73.729,32.673L73.629,33.668L73.629,33.668L73.729,32.673ZM80.065,33.307L80.164,32.311L80.164,32.311L80.065,33.307ZM83.15,34.135L82.408,34.806L82.408,34.806L83.15,34.135ZM83.15,49.865L82.408,49.194L82.408,49.194L83.15,49.865ZM80.065,50.694L80.164,51.689L80.164,51.689L80.065,50.694ZM73.73,51.327L73.631,50.332L73.631,50.332L73.73,51.327ZM68.372,52.923L69.295,53.305L69.295,53.305L68.372,52.923ZM71.032,57.84L70.258,58.473L70.29,58.512L70.325,58.547L71.032,57.84ZM71.032,57.84L71.806,57.207L71.775,57.168L71.739,57.133L71.032,57.84ZM75.063,62.767L75.837,62.134L75.837,62.134L75.063,62.767ZM76.659,65.534L77.658,65.584L77.658,65.583L76.659,65.534ZM65.536,76.657L65.585,77.656L65.585,77.656L65.536,76.657ZM62.769,75.061L62.135,75.835L62.135,75.835L62.769,75.061ZM57.84,71.029L57.133,71.736L57.169,71.772L57.207,71.803L57.84,71.029ZM57.84,71.029L58.548,70.322L58.512,70.287L58.474,70.255L57.84,71.029ZM52.923,68.368L53.306,69.292L53.306,69.292L52.923,68.368ZM51.327,73.727L52.322,73.826L52.322,73.826L51.327,73.727ZM50.694,80.065L51.689,80.164L51.689,80.164L50.694,80.065ZM49.865,83.15L49.194,82.408L49.194,82.408L49.865,83.15ZM34.135,83.15L34.806,82.408L34.806,82.408L34.135,83.15ZM33.307,80.065L32.312,80.164L32.312,80.164L33.307,80.065ZM32.673,73.729L33.668,73.629L33.668,73.629L32.673,73.729ZM31.077,68.37L31.46,67.446L31.46,67.446L31.077,68.37ZM26.16,71.031L25.527,70.257L25.527,70.257L26.16,71.031ZM21.231,75.063L21.865,75.837L21.865,75.837L21.231,75.063ZM18.465,76.659L18.415,77.658L18.415,77.658L18.465,76.659ZM15.87,74.796L15.163,75.503L15.163,75.503L15.87,74.796ZM9.204,68.13L9.911,67.423L9.911,67.423L9.204,68.13ZM7.341,65.536L6.342,65.585L6.342,65.585L7.341,65.536ZM8.937,62.769L8.163,62.135L8.163,62.135L8.937,62.769ZM12.969,57.84L13.743,58.474L13.757,58.457L13.769,58.44L12.969,57.84ZM12.969,57.84L12.195,57.207L12.182,57.223L12.169,57.24L12.969,57.84ZM15.63,52.923L14.706,53.306L14.706,53.306L15.63,52.923ZM10.271,51.327L10.371,50.332L10.371,50.332L10.271,51.327ZM3.935,50.694L4.035,49.699L3.985,49.694L3.935,49.694L3.935,50.694ZM3.935,50.694L3.836,51.689L3.886,51.694L3.935,51.694L3.935,50.694ZM0.851,49.865L0.109,50.536L0.109,50.536L0.851,49.865ZM0.333,46.713L-0.667,46.713L-0.667,46.713L0.333,46.713ZM0.333,37.287L1.333,37.287L1.333,37.287L0.333,37.287ZM0.851,34.135L1.592,34.806L1.592,34.806L0.851,34.135ZM3.935,33.307L3.935,32.307L3.886,32.307L3.836,32.311L3.935,33.307ZM3.935,33.307L3.935,34.307L3.985,34.307L4.035,34.302L3.935,33.307ZM10.273,32.673L10.372,33.668L10.372,33.668L10.273,32.673ZM15.632,31.077L14.708,30.694L14.708,30.694L15.632,31.077ZM12.971,26.16L13.745,25.526L13.713,25.488L13.678,25.453L12.971,26.16ZM12.971,26.16L12.197,26.793L12.228,26.832L12.264,26.867L12.971,26.16ZM8.937,21.23L9.711,20.596L9.711,20.596L8.937,21.23ZM7.341,18.463L6.343,18.413L6.343,18.413L7.341,18.463ZM9.205,15.868L9.912,16.575L9.912,16.575L9.205,15.868ZM15.87,9.203L15.163,8.495L15.163,8.495L15.87,9.203ZM18.465,7.339L18.415,6.341L18.415,6.341L18.465,7.339ZM21.232,8.935L21.865,8.161L21.865,8.161L21.232,8.935ZM26.16,12.967L25.527,13.741L25.527,13.741L26.16,12.967ZM31.077,15.628L31.46,16.552L31.46,16.552L31.077,15.628ZM32.673,10.27L33.668,10.369L33.668,10.369L32.673,10.27ZM33.307,3.935L34.302,4.035L34.307,3.985L34.307,3.935L33.307,3.935ZM33.307,3.935L32.312,3.836L32.307,3.885L32.307,3.935L33.307,3.935ZM34.135,0.85L34.806,1.592L34.806,1.592L34.135,0.85ZM49.865,0.85L49.194,1.592L49.194,1.592L49.865,0.85ZM51.694,3.935L51.694,3.935L49.694,3.935L49.694,3.935L51.694,3.935ZM52.322,10.172L51.689,3.836L49.699,4.035L50.332,10.371L52.322,10.172ZM53.306,14.706C53.203,14.664 53,14.544 52.803,13.76C52.605,12.975 52.489,11.839 52.322,10.172L50.332,10.371C50.492,11.971 50.621,13.285 50.863,14.248C51.106,15.212 51.537,16.138 52.54,16.554L53.306,14.706ZM57.207,12.195C55.91,13.256 55.025,13.977 54.33,14.393C53.636,14.807 53.408,14.748 53.306,14.706L52.54,16.554C53.543,16.969 54.503,16.62 55.356,16.109C56.209,15.6 57.229,14.761 58.474,13.743L57.207,12.195ZM62.135,8.163L57.207,12.195L58.474,13.743L63.402,9.711L62.135,8.163ZM65.585,6.343C64.918,6.309 64.354,6.543 63.834,6.868C63.337,7.177 62.78,7.635 62.135,8.163L63.402,9.711C64.088,9.149 64.53,8.79 64.892,8.565C65.229,8.354 65.383,8.335 65.486,8.34L65.585,6.343ZM68.837,8.497C68.248,7.908 67.739,7.397 67.276,7.039C66.79,6.664 66.252,6.376 65.585,6.343L65.486,8.34C65.588,8.345 65.739,8.38 66.054,8.623C66.392,8.883 66.796,9.284 67.423,9.912L68.837,8.497ZM75.503,15.163L68.837,8.497L67.423,9.912L74.088,16.577L75.503,15.163ZM77.657,18.415C77.624,17.748 77.335,17.21 76.961,16.724C76.603,16.261 76.092,15.752 75.503,15.163L74.088,16.577C74.716,17.204 75.117,17.608 75.377,17.946C75.62,18.261 75.655,18.412 75.66,18.514L77.657,18.415ZM75.837,21.865C76.365,21.22 76.823,20.663 77.132,20.166C77.457,19.646 77.691,19.082 77.657,18.415L75.66,18.514C75.665,18.617 75.646,18.771 75.435,19.108C75.21,19.47 74.851,19.912 74.289,20.598L75.837,21.865ZM71.805,26.793L75.837,21.865L74.289,20.598L70.257,25.527L71.805,26.793ZM69.294,30.695C69.251,30.592 69.192,30.364 69.607,29.67C70.023,28.975 70.744,28.09 71.805,26.793L70.257,25.527C69.239,26.771 68.4,27.791 67.891,28.644C67.38,29.497 67.031,30.457 67.446,31.46L69.294,30.695ZM73.828,31.678C72.161,31.511 71.025,31.395 70.24,31.197C69.456,31 69.336,30.797 69.294,30.695L67.446,31.46C67.862,32.463 68.788,32.894 69.752,33.137C70.715,33.379 72.029,33.508 73.629,33.668L73.828,31.678ZM80.164,32.311L73.828,31.678L73.629,33.668L79.965,34.302L80.164,32.311ZM83.891,33.464C83.443,32.968 82.879,32.735 82.281,32.596C81.711,32.464 80.994,32.394 80.164,32.311L79.965,34.302C80.848,34.39 81.414,34.448 81.829,34.545C82.217,34.635 82.339,34.73 82.408,34.806L83.891,33.464ZM84.667,37.287C84.667,36.453 84.669,35.732 84.594,35.152C84.515,34.543 84.339,33.959 83.891,33.464L82.408,34.806C82.477,34.882 82.559,35.013 82.61,35.408C82.665,35.83 82.667,36.4 82.667,37.287L84.667,37.287ZM84.667,46.713L84.667,37.287L82.667,37.287L82.667,46.713L84.667,46.713ZM83.891,50.536C84.339,50.041 84.515,49.457 84.594,48.848C84.669,48.268 84.667,47.547 84.667,46.713L82.667,46.713C82.667,47.6 82.665,48.17 82.61,48.592C82.559,48.987 82.477,49.118 82.408,49.194L83.891,50.536ZM80.164,51.689C80.994,51.606 81.711,51.536 82.281,51.404C82.879,51.265 83.443,51.032 83.891,50.536L82.408,49.194C82.339,49.271 82.217,49.366 81.829,49.455C81.414,49.552 80.848,49.61 79.965,49.699L80.164,51.689ZM73.83,52.322L80.164,51.689L79.965,49.699L73.631,50.332L73.83,52.322ZM69.295,53.305C69.338,53.203 69.458,53 70.241,52.803C71.026,52.605 72.162,52.489 73.83,52.322L73.631,50.332C72.031,50.492 70.716,50.621 69.753,50.863C68.789,51.106 67.863,51.537 67.448,52.54L69.295,53.305ZM71.806,57.207C70.745,55.91 70.024,55.025 69.609,54.33C69.194,53.636 69.253,53.408 69.295,53.305L67.448,52.54C67.032,53.543 67.382,54.503 67.892,55.356C68.402,56.209 69.24,57.229 70.258,58.473L71.806,57.207ZM71.739,57.133L71.739,57.133L70.325,58.547L70.325,58.547L71.739,57.133ZM75.837,62.134L71.806,57.207L70.258,58.473L74.289,63.4L75.837,62.134ZM77.658,65.583C77.691,64.916 77.457,64.352 77.133,63.832C76.823,63.335 76.365,62.779 75.837,62.134L74.289,63.4C74.851,64.086 75.21,64.528 75.435,64.89C75.646,65.228 75.665,65.381 75.66,65.484L77.658,65.583ZM75.503,68.835C76.092,68.246 76.603,67.737 76.961,67.274C77.336,66.788 77.624,66.251 77.658,65.584L75.66,65.484C75.655,65.586 75.62,65.738 75.377,66.052C75.117,66.39 74.716,66.794 74.089,67.421L75.503,68.835ZM68.837,75.501L75.503,68.835L74.089,67.421L67.423,74.087L68.837,75.501ZM65.585,77.656C66.253,77.622 66.79,77.334 67.276,76.959C67.739,76.601 68.248,76.09 68.837,75.501L67.423,74.087C66.796,74.714 66.392,75.115 66.054,75.376C65.739,75.619 65.588,75.653 65.486,75.658L65.585,77.656ZM62.135,75.835C62.78,76.363 63.337,76.821 63.834,77.131C64.354,77.455 64.918,77.689 65.585,77.656L65.486,75.658C65.383,75.663 65.229,75.644 64.892,75.434C64.53,75.208 64.088,74.849 63.402,74.287L62.135,75.835ZM57.207,71.803L62.135,75.835L63.402,74.287L58.474,70.255L57.207,71.803ZM57.133,71.736L57.133,71.736L58.548,70.322L58.548,70.322L57.133,71.736ZM53.306,69.292C53.408,69.25 53.637,69.191 54.33,69.606C55.025,70.021 55.91,70.742 57.207,71.803L58.474,70.255C57.229,69.237 56.209,68.399 55.357,67.889C54.503,67.379 53.543,67.029 52.54,67.444L53.306,69.292ZM52.322,73.826C52.489,72.159 52.605,71.023 52.803,70.238C53,69.455 53.203,69.335 53.306,69.292L52.54,67.444C51.537,67.86 51.106,68.786 50.863,69.75C50.621,70.713 50.492,72.028 50.332,73.627L52.322,73.826ZM51.689,80.164L52.322,73.826L50.332,73.627L49.699,79.965L51.689,80.164ZM50.536,83.891C51.032,83.443 51.265,82.879 51.404,82.281C51.536,81.711 51.606,80.994 51.689,80.164L49.699,79.965C49.61,80.848 49.552,81.414 49.455,81.829C49.366,82.217 49.271,82.339 49.194,82.408L50.536,83.891ZM46.713,84.667C47.547,84.667 48.268,84.669 48.848,84.594C49.457,84.515 50.041,84.339 50.536,83.891L49.194,82.408C49.118,82.477 48.987,82.559 48.593,82.61C48.17,82.665 47.6,82.667 46.713,82.667L46.713,84.667ZM37.287,84.667L46.713,84.667L46.713,82.667L37.287,82.667L37.287,84.667ZM33.464,83.891C33.959,84.339 34.543,84.515 35.152,84.594C35.732,84.669 36.453,84.667 37.287,84.667L37.287,82.667C36.4,82.667 35.83,82.665 35.408,82.61C35.013,82.559 34.882,82.477 34.806,82.408L33.464,83.891ZM32.312,80.164C32.394,80.994 32.464,81.711 32.596,82.281C32.735,82.879 32.968,83.443 33.464,83.891L34.806,82.408C34.73,82.339 34.635,82.217 34.545,81.829C34.448,81.414 34.39,80.848 34.302,79.965L32.312,80.164ZM31.678,73.828L32.312,80.164L34.302,79.965L33.668,73.629L31.678,73.828ZM30.695,69.294C30.797,69.336 31,69.456 31.197,70.24C31.395,71.025 31.511,72.161 31.678,73.828L33.668,73.629C33.508,72.029 33.379,70.715 33.137,69.752C32.894,68.788 32.463,67.862 31.46,67.446L30.695,69.294ZM26.793,71.805C28.09,70.744 28.975,70.023 29.67,69.607C30.364,69.192 30.592,69.251 30.695,69.294L31.46,67.446C30.457,67.031 29.497,67.38 28.644,67.891C27.791,68.4 26.771,69.239 25.527,70.257L26.793,71.805ZM21.865,75.837L26.793,71.805L25.527,70.257L20.598,74.289L21.865,75.837ZM18.415,77.658C19.082,77.691 19.646,77.457 20.166,77.132C20.663,76.823 21.22,76.365 21.865,75.837L20.598,74.289C19.912,74.851 19.47,75.21 19.108,75.435C18.771,75.646 18.617,75.665 18.514,75.66L18.415,77.658ZM15.163,75.503C15.752,76.092 16.261,76.603 16.724,76.961C17.21,77.336 17.748,77.624 18.415,77.658L18.514,75.66C18.412,75.655 18.261,75.62 17.946,75.377C17.608,75.117 17.204,74.716 16.577,74.089L15.163,75.503ZM8.497,68.837L15.163,75.503L16.577,74.089L9.911,67.423L8.497,68.837ZM6.342,65.585C6.376,66.253 6.664,66.79 7.039,67.276C7.397,67.739 7.908,68.248 8.497,68.837L9.911,67.423C9.284,66.796 8.883,66.392 8.623,66.054C8.38,65.739 8.345,65.588 8.34,65.486L6.342,65.585ZM8.163,62.135C7.635,62.78 7.177,63.337 6.868,63.834C6.543,64.354 6.309,64.918 6.342,65.585L8.34,65.486C8.335,65.383 8.354,65.229 8.565,64.892C8.79,64.53 9.149,64.088 9.711,63.402L8.163,62.135ZM12.195,57.207L8.163,62.135L9.711,63.402L13.743,58.474L12.195,57.207ZM12.169,57.24L12.169,57.24L13.769,58.44L13.769,58.44L12.169,57.24ZM14.706,53.306C14.749,53.408 14.808,53.636 14.393,54.33C13.977,55.025 13.256,55.91 12.195,57.207L13.743,58.473C14.761,57.229 15.6,56.209 16.109,55.356C16.62,54.503 16.969,53.543 16.554,52.54L14.706,53.306ZM10.172,52.322C11.839,52.489 12.975,52.605 13.76,52.803C14.544,53 14.664,53.203 14.706,53.306L16.554,52.54C16.138,51.537 15.212,51.106 14.248,50.863C13.285,50.621 11.971,50.492 10.371,50.332L10.172,52.322ZM3.836,51.689L10.172,52.322L10.371,50.332L4.035,49.699L3.836,51.689ZM3.935,51.694L3.935,51.694L3.935,49.694L3.935,49.694L3.935,51.694ZM0.109,50.536C0.557,51.032 1.121,51.265 1.719,51.404C2.289,51.536 3.007,51.606 3.836,51.689L4.035,49.699C3.152,49.61 2.586,49.552 2.171,49.455C1.783,49.366 1.661,49.271 1.592,49.194L0.109,50.536ZM-0.667,46.713C-0.667,47.547 -0.668,48.268 -0.594,48.848C-0.515,49.457 -0.339,50.041 0.109,50.536L1.592,49.194C1.523,49.118 1.441,48.987 1.39,48.592C1.335,48.17 1.333,47.6 1.333,46.713L-0.667,46.713ZM-0.667,37.287L-0.667,46.713L1.333,46.713L1.333,37.287L-0.667,37.287ZM0.109,33.464C-0.339,33.959 -0.515,34.543 -0.594,35.152C-0.668,35.732 -0.667,36.453 -0.667,37.287L1.333,37.287C1.333,36.4 1.335,35.83 1.39,35.408C1.441,35.013 1.523,34.882 1.592,34.806L0.109,33.464ZM3.836,32.311C3.007,32.394 2.289,32.464 1.719,32.596C1.121,32.735 0.557,32.968 0.109,33.464L1.592,34.806C1.661,34.73 1.783,34.635 2.171,34.545C2.586,34.448 3.152,34.39 4.035,34.302L3.836,32.311ZM3.935,32.307L3.935,32.307L3.935,34.307L3.935,34.307L3.935,32.307ZM10.173,31.678L3.836,32.311L4.035,34.302L10.372,33.668L10.173,31.678ZM14.708,30.694C14.665,30.797 14.545,31 13.762,31.197C12.977,31.395 11.841,31.511 10.173,31.678L10.372,33.668C11.972,33.508 13.287,33.379 14.25,33.137C15.214,32.894 16.14,32.463 16.555,31.46L14.708,30.694ZM12.197,26.793C13.258,28.09 13.979,28.975 14.394,29.67C14.809,30.364 14.75,30.592 14.708,30.694L16.555,31.46C16.971,30.457 16.621,29.497 16.111,28.644C15.601,27.791 14.763,26.771 13.745,25.526L12.197,26.793ZM12.264,26.867L12.264,26.867L13.678,25.453L13.678,25.453L12.264,26.867ZM8.163,21.863L12.197,26.793L13.745,25.526L9.711,20.596L8.163,21.863ZM6.343,18.413C6.309,19.08 6.543,19.644 6.868,20.165C7.177,20.661 7.635,21.218 8.163,21.863L9.711,20.596C9.149,19.91 8.79,19.468 8.565,19.106C8.354,18.769 8.335,18.615 8.34,18.512L6.343,18.413ZM8.497,15.161C7.908,15.75 7.397,16.259 7.039,16.722C6.665,17.208 6.376,17.746 6.343,18.413L8.34,18.512C8.345,18.41 8.38,18.259 8.623,17.944C8.883,17.606 9.284,17.203 9.912,16.575L8.497,15.161ZM15.163,8.495L8.497,15.161L9.912,16.575L16.577,9.91L15.163,8.495ZM18.415,6.341C17.748,6.374 17.21,6.663 16.724,7.037C16.261,7.395 15.753,7.906 15.163,8.495L16.577,9.91C17.205,9.282 17.608,8.881 17.946,8.621C18.261,8.378 18.412,8.343 18.515,8.338L18.415,6.341ZM21.865,8.161C21.22,7.633 20.663,7.175 20.167,6.866C19.646,6.541 19.082,6.307 18.415,6.341L18.515,8.338C18.617,8.333 18.771,8.352 19.108,8.563C19.47,8.788 19.912,9.147 20.598,9.709L21.865,8.161ZM26.793,12.194L21.865,8.161L20.598,9.709L25.527,13.741L26.793,12.194ZM30.695,14.704C30.592,14.747 30.364,14.806 29.67,14.391C28.975,13.976 28.09,13.255 26.793,12.194L25.527,13.741C26.771,14.76 27.792,15.598 28.644,16.108C29.497,16.618 30.457,16.968 31.46,16.552L30.695,14.704ZM31.678,10.17C31.511,11.838 31.395,12.973 31.198,13.758C31,14.542 30.797,14.662 30.695,14.704L31.46,16.552C32.463,16.137 32.895,15.211 33.137,14.246C33.379,13.283 33.508,11.969 33.668,10.369L31.678,10.17ZM32.312,3.836L31.678,10.17L33.668,10.369L34.302,4.035L32.312,3.836ZM32.307,3.935L32.307,3.935L34.307,3.935L34.307,3.935L32.307,3.935ZM33.464,0.109C32.968,0.557 32.735,1.121 32.596,1.719C32.464,2.289 32.394,3.006 32.312,3.836L34.302,4.035C34.39,3.152 34.448,2.586 34.545,2.171C34.635,1.783 34.73,1.661 34.806,1.592L33.464,0.109ZM37.287,-0.667C36.453,-0.667 35.732,-0.669 35.152,-0.594C34.543,-0.515 33.959,-0.339 33.464,0.109L34.806,1.592C34.882,1.523 35.013,1.441 35.408,1.39C35.83,1.335 36.4,1.333 37.287,1.333L37.287,-0.667ZM46.713,-0.667L37.287,-0.667L37.287,1.333L46.713,1.333L46.713,-0.667ZM50.536,0.109C50.041,-0.339 49.457,-0.515 48.848,-0.594C48.268,-0.669 47.547,-0.667 46.713,-0.667L46.713,1.333C47.6,1.333 48.17,1.335 48.593,1.39C48.987,1.441 49.118,1.523 49.194,1.592L50.536,0.109ZM51.689,3.836C51.606,3.006 51.536,2.289 51.404,1.719C51.265,1.121 51.032,0.557 50.536,0.109L49.194,1.592C49.271,1.661 49.366,1.783 49.455,2.171C49.552,2.586 49.61,3.152 49.699,4.035L51.689,3.836ZM57.667,42C57.667,50.653 50.653,57.667 42,57.667L42,59.667C51.757,59.667 59.667,51.757 59.667,42L57.667,42ZM42,26.333C50.653,26.333 57.667,33.348 57.667,42L59.667,42C59.667,32.243 51.757,24.333 42,24.333L42,26.333ZM26.333,42C26.333,33.348 33.348,26.333 42,26.333L42,24.333C32.243,24.333 24.333,32.243 24.333,42L26.333,42ZM42,57.667C33.348,57.667 26.333,50.653 26.333,42L24.333,42C24.333,51.757 32.243,59.667 42,59.667L42,57.667Z" fill="#222222"/>
</svg>
