<svg width="76" height="84" viewBox="0 0 76 84" fill="none" xmlns="http://www.w3.org/2000/svg" xmlns:xlink="http://www.w3.org/1999/xlink">
<path d="M38.771,82.98C44.104,80.465 75.334,64.553 75.334,36.833C75.334,16.859 58.619,0.667 38,0.667C17.382,0.667 0.667,16.859 0.667,36.833C0.667,64.553 31.896,80.465 37.23,82.98C37.731,83.216 38.27,83.216 38.771,82.98ZM38,52.333C46.837,52.333 54,45.394 54,36.833C54,28.273 46.837,21.333 38,21.333C29.164,21.333 22,28.273 22,36.833C22,45.394 29.164,52.333 38,52.333Z" clip-rule="evenodd" fill-rule="evenodd" fill="#7E869E" fill-opacity="0.25" stroke="#222222" stroke-width="1.2" stroke-miterlimit="3.999327"/>
</svg>
