<svg width="98" height="40" viewBox="0 0 98 40" fill="none" xmlns="http://www.w3.org/2000/svg" xmlns:xlink="http://www.w3.org/1999/xlink">
<path d="M16.333,40L49,40L90,40C94.418,40 98,36.418 98,32L98,24C98,19.582 94.418,16 90,16L84.812,16C81.606,16 80.004,16 78.895,15.537C77.786,15.075 75.534,12.8 71.032,8.25C66.083,3.25 58.058,0 49,0C38.565,0 29.502,4.313 24.933,10.645C23.382,12.795 22.606,13.87 22.298,14.187C21.026,15.492 20.683,15.668 18.88,15.935C18.442,16 17.739,16 16.333,16L16.333,16C7.313,16 0,21.373 0,28C0,34.627 7.313,40 16.333,40Z" clip-rule="evenodd" fill-rule="evenodd" fill="#97DAF6" stroke="#222222" stroke-width="1.2" stroke-miterlimit="3.999327"/>
</svg>
