<svg width="84" height="62" viewBox="0 0 84 62" fill="none" xmlns="http://www.w3.org/2000/svg" xmlns:xlink="http://www.w3.org/1999/xlink">
<path d="M4.756,5.181L11.327,0.753C12.002,0.298 12.887,0.298 13.562,0.753L30.428,12.119C31.604,12.912 31.604,14.644 30.428,15.436L24.402,19.497C23.457,20.134 23.234,21.432 23.914,22.347L24.298,22.865C29.891,30.404 37.657,36.051 46.552,39.048L52.397,41.018C52.987,41.217 53.636,41.129 54.153,40.781L62.438,35.198C63.113,34.742 63.998,34.742 64.673,35.198L81.539,46.564C82.715,47.356 82.715,49.088 81.539,49.881L69.393,58.066C65.788,60.495 61.152,60.785 57.273,58.825L28.118,44.089C24.5,42.26 21.139,39.961 18.123,37.251L3.442,24.059C-2.368,18.838 -1.721,9.547 4.756,5.181Z" fill="#7E869E" fill-opacity="0.25" stroke="#222222" stroke-width="1.2" stroke-miterlimit="3.999327"/>
</svg>
