<svg width="166" height="94" viewBox="0 0 166 94" fill="none" xmlns="http://www.w3.org/2000/svg" xmlns:xlink="http://www.w3.org/1999/xlink">
<path d="M1,44L-1,44L-1,44L1,44ZM11.757,66.424L10.343,65.01L11.757,66.424ZM54.414,23.919L55.828,22.505L54.414,23.919ZM54.414,43.414L55.828,44.828L54.414,43.414ZM1.586,64.081L0.172,65.495L1.586,64.081ZM161.828,3.838L163.243,2.424L161.828,3.838ZM161.243,66.424L162.657,65.01L161.243,66.424ZM10.293,90.207L8.879,91.621L10.293,90.207ZM161.243,88.743L159.828,87.328L161.243,88.743ZM161,77.583L161,78.5L165,78.5L165,77.583L161,77.583ZM151,88.5L12,88.5L12,92.5L151,92.5L151,88.5ZM155,0.667L5,0.667L5,4.667L155,4.667L155,0.667ZM161,76.667L161,77.583L165,77.583L165,76.667L161,76.667ZM165,77.583L165,10.667L161,10.667L161,77.583L165,77.583ZM5,66.667L151,66.667L151,62.667L5,62.667L5,66.667ZM3,23.333L3,6.667L-1,6.667L-1,23.333L3,23.333ZM3,60.667L3,44L-1,44L-1,60.667L3,60.667ZM57,40L57,27.333L53,27.333L53,40L57,40ZM51,21.333L1,21.333L1,25.333L51,25.333L51,21.333ZM3,44L3,23.333L-1,23.333L-1,44L3,44ZM1,46L51,46L51,42L1,42L1,46ZM12,88.5L12,76.667L8,76.667L8,88.5L12,88.5ZM22,66.667L55,66.667L55,62.667L22,62.667L22,66.667ZM12,76.667C12,73.782 12.004,71.819 12.202,70.349C12.392,68.937 12.726,68.283 13.172,67.838L10.343,65.01C9.031,66.322 8.487,67.961 8.238,69.816C7.996,71.615 8,73.895 8,76.667L12,76.667ZM22,62.667C19.228,62.667 16.948,62.662 15.15,62.904C13.294,63.154 11.655,63.698 10.343,65.01L13.172,67.838C13.617,67.393 14.271,67.058 15.683,66.868C17.153,66.671 19.115,66.667 22,66.667L22,62.667ZM57,27.333C57,26.447 57.004,25.581 56.909,24.872C56.806,24.106 56.555,23.231 55.828,22.505L53,25.333C52.859,25.193 52.901,25.082 52.945,25.405C52.996,25.786 53,26.334 53,27.333L57,27.333ZM51,25.333C51.999,25.333 52.548,25.338 52.928,25.389C53.251,25.432 53.141,25.474 53,25.333L55.828,22.505C55.102,21.778 54.227,21.527 53.461,21.424C52.752,21.329 51.886,21.333 51,21.333L51,25.333ZM53,40C53,40.999 52.996,41.548 52.945,41.928C52.901,42.251 52.859,42.141 53,42L55.828,44.828C56.555,44.102 56.806,43.227 56.909,42.461C57.004,41.752 57,40.886 57,40L53,40ZM51,46C51.886,46 52.752,46.004 53.461,45.909C54.227,45.806 55.102,45.555 55.828,44.828L53,42C53.141,41.859 53.251,41.901 52.928,41.945C52.548,41.996 51.999,42 51,42L51,46ZM5,62.667C4.001,62.667 3.452,62.662 3.072,62.611C2.749,62.568 2.859,62.526 3,62.667L0.172,65.495C0.898,66.221 1.773,66.473 2.539,66.576C3.248,66.671 4.114,66.667 5,66.667L5,62.667ZM-1,60.667C-1,61.553 -1.004,62.419 -0.909,63.128C-0.806,63.894 -0.555,64.769 0.172,65.495L3,62.667C3.141,62.807 3.099,62.918 3.055,62.595C3.004,62.214 3,61.666 3,60.667L-1,60.667ZM5,0.667C4.114,0.667 3.248,0.662 2.539,0.758C1.773,0.861 0.898,1.112 0.172,1.838L3,4.667C2.859,4.807 2.749,4.765 3.072,4.722C3.452,4.671 4.001,4.667 5,4.667L5,0.667ZM3,6.667C3,5.667 3.004,5.119 3.055,4.739C3.099,4.416 3.141,4.526 3,4.667L0.172,1.838C-0.555,2.565 -0.806,3.439 -0.909,4.206C-1.004,4.915 -1,5.78 -1,6.667L3,6.667ZM155,4.667C156.942,4.667 158.198,4.671 159.123,4.795C159.99,4.912 160.262,5.1 160.414,5.252L163.243,2.424C162.223,1.405 160.967,1.007 159.656,0.831C158.402,0.662 156.829,0.667 155,0.667L155,4.667ZM165,10.667C165,8.838 165.004,7.265 164.836,6.011C164.659,4.7 164.262,3.443 163.243,2.424L160.414,5.252C160.566,5.405 160.755,5.677 160.871,6.544C160.996,7.469 161,8.725 161,10.667L165,10.667ZM165,76.667C165,73.895 165.004,71.615 164.762,69.816C164.513,67.961 163.969,66.322 162.657,65.01L159.828,67.838C160.273,68.283 160.608,68.937 160.798,70.349C160.996,71.819 161,73.782 161,76.667L165,76.667ZM151,66.667C153.885,66.667 155.847,66.671 157.317,66.868C158.729,67.058 159.383,67.393 159.828,67.838L162.657,65.01C161.345,63.698 159.706,63.154 157.85,62.904C156.052,62.662 153.772,62.667 151,62.667L151,66.667ZM12,88.5C11.757,88.5 11.578,88.5 11.427,88.496C11.275,88.492 11.201,88.485 11.169,88.481C11.139,88.477 11.203,88.482 11.312,88.527C11.436,88.578 11.579,88.665 11.707,88.793L8.879,91.621C9.459,92.201 10.142,92.379 10.636,92.445C11.073,92.504 11.585,92.5 12,92.5L12,88.5ZM8,88.5C8,88.915 7.996,89.427 8.055,89.864C8.121,90.358 8.299,91.041 8.879,91.621L11.707,88.793C11.835,88.921 11.922,89.064 11.973,89.188C12.018,89.297 12.023,89.361 12.019,89.331C12.015,89.299 12.008,89.225 12.004,89.073C12,88.922 12,88.743 12,88.5L8,88.5ZM161,78.5C161,81.385 160.996,83.347 160.798,84.817C160.608,86.229 160.273,86.883 159.828,87.328L162.657,90.157C163.969,88.845 164.513,87.206 164.762,85.35C165.004,83.552 165,81.272 165,78.5L161,78.5ZM151,92.5C153.772,92.5 156.052,92.504 157.85,92.262C159.706,92.013 161.345,91.469 162.657,90.157L159.828,87.328C159.383,87.774 158.729,88.108 157.317,88.298C155.847,88.496 153.885,88.5 151,88.5L151,92.5Z" transform="rotate(-360 82 46.583)" fill="#33363F"/>
</svg>
