<svg width="80" height="74" viewBox="0 0 80 74" fill="none" xmlns="http://www.w3.org/2000/svg" xmlns:xlink="http://www.w3.org/1999/xlink">
<mask id="mask_0_130_77" style="mask-type:alpha" maskUnits="userSpaceOnUse" x="0" y="0" width="39.134644" height="36.258606">
<path d="M0,0L78.269,0L78.269,42.517C78.269,59.086 64.838,72.517 48.269,72.517L30,72.517C13.431,72.517 0,59.086 0,42.517Z" fill="#D9D9D9"/>
</mask>
<g mask="url(#mask_0_130_77)">
<path d="M52.18,44.844C49.679,42.722 47.247,40.638 44.883,38.592C42.518,36.545 40.426,34.537 38.605,32.567C36.784,30.596 35.33,28.689 34.243,26.845C33.156,25.001 32.612,23.22 32.612,21.502C32.612,18.673 33.645,16.299 35.71,14.379C37.776,12.459 40.33,11.499 43.374,11.499C45.114,11.499 46.744,11.84 48.266,12.522C49.788,13.204 51.092,14.126 52.18,15.288C53.267,14.126 54.571,13.204 56.093,12.522C57.615,11.84 59.245,11.499 60.985,11.499C64.029,11.499 66.583,12.459 68.649,14.379C70.714,16.299 71.747,18.673 71.747,21.502C71.747,23.22 71.203,25.001 70.116,26.845C69.029,28.689 67.575,30.596 65.754,32.567C63.933,34.537 61.854,36.545 59.517,38.592C57.18,40.638 54.734,42.722 52.18,44.844ZM52.18,36.659C55.386,33.83 58.362,31.013 61.107,28.209C63.852,25.405 65.224,23.17 65.224,21.502C65.224,20.34 64.83,19.393 64.042,18.661C63.254,17.928 62.235,17.562 60.985,17.562C60.224,17.562 59.504,17.701 58.824,17.978C58.145,18.256 57.561,18.673 57.071,19.229L52.18,24.685L47.288,19.229C46.798,18.673 46.214,18.256 45.535,17.978C44.855,17.701 44.135,17.562 43.374,17.562C42.124,17.562 41.105,17.928 40.317,18.661C39.529,19.393 39.135,20.34 39.135,21.502C39.135,23.17 40.507,25.405 43.252,28.209C45.997,31.013 48.973,33.83 52.18,36.659ZM45.657,73.641L22.829,67.73L22.829,72.126L3.261,72.126L3.261,38.781L29.188,38.781L49.407,45.753C51.201,46.359 52.655,47.42 53.769,48.936C54.884,50.452 55.441,52.119 55.441,53.938L61.963,53.938C64.681,53.938 66.991,54.771 68.893,56.439C70.796,58.106 71.747,60.304 71.747,63.032L71.747,66.063L45.657,73.641ZM9.784,66.063L16.306,66.063L16.306,44.844L9.784,44.844L9.784,66.063ZM45.494,67.276L64.898,61.668C64.735,61.112 64.368,60.695 63.798,60.417C63.227,60.139 62.615,60 61.963,60L46.309,60C44.624,60 43.102,59.899 41.744,59.697C40.385,59.495 38.917,59.142 37.341,58.636L31.715,56.818L33.591,51.058L40.113,53.028C41.091,53.331 42.233,53.559 43.537,53.71C44.842,53.862 46.635,53.938 48.918,53.938C48.918,53.382 48.742,52.852 48.388,52.346C48.035,51.841 47.614,51.513 47.125,51.361L28.046,44.844L22.829,44.844L22.829,61.516L45.494,67.276Z" fill="#BF326C"/>
</g>
</svg>
