<svg width="80" height="74" viewBox="0 0 80 74" fill="none" xmlns="http://www.w3.org/2000/svg" xmlns:xlink="http://www.w3.org/1999/xlink">
<mask id="mask_0_165_211" style="mask-type:alpha" maskUnits="userSpaceOnUse" x="0" y="0" width="39.134644" height="36.258606">
<rect  x="0" y="0" width="78.269" height="72.517" fill="#D9D9D9"/>
</mask>
<g mask="url(#mask_0_165_211)">
<path d="M52.18,39.28C49.679,37.165 47.247,35.088 44.883,33.048C42.518,31.009 40.426,29.007 38.605,27.043C36.784,25.079 35.33,23.178 34.243,21.34C33.156,19.502 32.612,17.726 32.612,16.014C32.612,13.194 33.645,10.827 35.71,8.914C37.776,7 40.33,6.043 43.374,6.043C45.114,6.043 46.744,6.383 48.266,7.063C49.788,7.743 51.092,8.662 52.18,9.82C53.267,8.662 54.571,7.743 56.093,7.063C57.615,6.383 59.245,6.043 60.985,6.043C64.029,6.043 66.583,7 68.649,8.914C70.714,10.827 71.747,13.194 71.747,16.014C71.747,17.726 71.203,19.502 70.116,21.34C69.029,23.178 67.575,25.079 65.754,27.043C63.933,29.007 61.854,31.009 59.517,33.048C57.18,35.088 54.734,37.165 52.18,39.28ZM52.18,31.122C55.386,28.302 58.362,25.494 61.107,22.699C63.852,19.904 65.224,17.676 65.224,16.014C65.224,14.856 64.83,13.912 64.042,13.182C63.254,12.451 62.235,12.086 60.985,12.086C60.224,12.086 59.504,12.225 58.824,12.502C58.145,12.779 57.561,13.194 57.071,13.748L52.18,19.187L47.288,13.748C46.798,13.194 46.214,12.779 45.535,12.502C44.855,12.225 44.135,12.086 43.374,12.086C42.124,12.086 41.105,12.451 40.317,13.182C39.529,13.912 39.135,14.856 39.135,16.014C39.135,17.676 40.507,19.904 43.252,22.699C45.997,25.494 48.973,28.302 52.18,31.122ZM45.657,67.985L22.829,62.093L22.829,66.474L3.261,66.474L3.261,33.237L29.188,33.237L49.407,40.187C51.201,40.791 52.655,41.848 53.769,43.359C54.884,44.87 55.441,46.532 55.441,48.345L61.963,48.345C64.681,48.345 66.991,49.176 68.893,50.837C70.796,52.499 71.747,54.69 71.747,57.409L71.747,60.431L45.657,67.985ZM9.784,60.431L16.306,60.431L16.306,39.28L9.784,39.28L9.784,60.431ZM45.494,61.64L64.898,56.05C64.735,55.496 64.368,55.08 63.798,54.803C63.227,54.526 62.615,54.388 61.963,54.388L46.309,54.388C44.624,54.388 43.102,54.287 41.744,54.086C40.385,53.884 38.917,53.532 37.341,53.028L31.715,51.215L33.591,45.474L40.113,47.438C41.091,47.74 42.233,47.967 43.537,48.118C44.842,48.269 46.635,48.345 48.918,48.345C48.918,47.791 48.742,47.262 48.388,46.758C48.035,46.255 47.614,45.927 47.125,45.776L28.046,39.28L22.829,39.28L22.829,55.899L45.494,61.64Z" fill="#1C1B1F"/>
</g>
</svg>
